<?xml version="1.0" encoding="utf-8"?>
<!-- Generator: Adobe Illustrator 25.2.0, SVG Export Plug-In . SVG Version: 6.00 Build 0)  -->
<svg version="1.1"
	 id="Layer_1" inkscape:version="1.0.2 (e86c870879, 2021-01-15, custom)" sodipodi:docname="flink-1.svg" xmlns:cc="http://creativecommons.org/ns#" xmlns:dc="http://purl.org/dc/elements/1.1/" xmlns:inkscape="http://www.inkscape.org/namespaces/inkscape" xmlns:rdf="http://www.w3.org/1999/02/22-rdf-syntax-ns#" xmlns:sodipodi="http://sodipodi.sourceforge.net/DTD/sodipodi-0.dtd"
	 xmlns="http://www.w3.org/2000/svg" xmlns:xlink="http://www.w3.org/1999/xlink" x="0px" y="0px" viewBox="0 0 1649 808"
	 style="enable-background:new 0 0 1649 808;" xml:space="preserve">
<style type="text/css">
	.st0{fill:#E65270;}
	.st1{opacity:0.2;fill:#430A1D;enable-background:new    ;}
	.st2{opacity:0.2;}
	.st3{fill:#2B2B2B;}
	.st4{fill:url(#SVGID_1_);}
	.st5{opacity:0.2;fill:#2B2B2B;enable-background:new    ;}
	.st6{fill:url(#SVGID_2_);}
	.st7{opacity:0.2;fill:#FFFFFF;enable-background:new    ;}
	.st8{opacity:0.6;fill:#8B4FBA;enable-background:new    ;}
	.st9{fill:#F9E0E7;}
	.st10{fill:#FFFFFF;}
	.st11{fill:url(#SVGID_3_);}
	.st12{opacity:0.2;fill:#8B4FBA;enable-background:new    ;}
	.st13{opacity:0.3;fill:#FFFFFF;enable-background:new    ;}
	.st14{fill:url(#SVGID_4_);}
	.st15{fill:url(#SVGID_5_);}
	.st16{fill:#E65271;}
	.st17{fill:url(#SVGID_6_);}
	.st18{fill:url(#SVGID_7_);}
	.st19{fill:#F6E8A0;}
	.st20{fill:#F8D285;}
	.st21{fill:url(#SVGID_8_);}
	.st22{fill:url(#SVGID_9_);}
	.st23{fill:url(#SVGID_10_);}
	.st24{opacity:0.7;fill:url(#SVGID_11_);enable-background:new    ;}
	.st25{opacity:0.7;fill:url(#SVGID_12_);enable-background:new    ;}
	.st26{opacity:0.7;fill:url(#SVGID_13_);enable-background:new    ;}
	.st27{fill:url(#SVGID_14_);}
	.st28{opacity:0.3;fill:#F6E8A0;enable-background:new    ;}
	.st29{fill:url(#SVGID_15_);}
	.st30{fill:url(#SVGID_16_);}
	.st31{fill:url(#SVGID_17_);}
	.st32{fill:url(#SVGID_18_);}
	.st33{opacity:0.4;fill:#8B4FBA;enable-background:new    ;}
	.st34{opacity:0.4;fill:#2B2B2B;enable-background:new    ;}
	.st35{fill:#0D0D0D;}
	.st36{fill:url(#SVGID_19_);}
	.st37{fill:url(#SVGID_22_);}
	.st38{fill:#8B4FBA;}
	.st39{display:none;fill:none;}
</style>
<symbol  id="cvfam" viewBox="-50.5 -51 100.9 101.9">
	<path inkscape:connector-curvature="0" class="st0" d="M14.1-50c-1.4,0-2.7,0-4.1,0l-3.5,0c0,0-10,0-14.8,0c-0.7,0-1.5,0-2.2,0
		c-0.8,0-1.5,0-2.3,0c-0.5,0-0.9,0-1.4,0c-2.8,0-5.6,0.4-8.1,1c-10,2.6-17.6,8.6-22.5,17.6c-2.4,4.4-3.7,9.2-4,14.5
		c-0.1,2.3,0,4.7,0.4,7.1c0,0.3,0.1,0.6,0.1,0.9l0.1,0.6l0.2-0.2c0.1-0.1,0.1-0.2,0.2-0.3c0.1-0.3,0.2-0.6,0.3-1
		c0.2-0.7,0.4-1.4,0.6-2c1.7-4.9,4.3-9.4,7.9-13.9c0.1-0.2,0.3-0.4,0.3-0.6c1.2-3.8,3.4-7,6.3-9.7c2.9-2.6,6.4-4.5,10.3-5.8
		c-2.5,1.1-4.9,2.5-7,4.1c-3.4,2.7-5.9,6-7.4,9.9c-0.1,0.4-0.3,0.9-0.1,1.4c0.1,0.2,0.1,0.4,0.2,0.5c0,0.1,0.1,0.3,0.1,0.4
		c0.8,2.6,2,4.6,3.6,6.1c1.5,1.5,3.5,2.5,6,3.3c2.3,0.7,4.8,1,7.1,1.3l1,0.1c1.3,0.2,2.7,0.4,4,0.6l0.8,0.1c0.3,0,0.6,0.1,0.9,0.2
		l0.7,0.2l-0.2-0.3c0,0,0-0.1,0-0.1c-1.2-1.4-2.3-2.9-3.1-4.5c-0.1-0.1-0.2-0.3-0.4-0.3c-0.2-0.1-0.3-0.1-0.5-0.2
		c-0.6-0.2-1.1-0.4-1.7-0.5c-0.6-0.1-1.3-0.2-1.9-0.3c-0.5-0.1-1-0.1-1.5-0.2c-1.7-0.3-2.9-0.8-3.9-1.6c0.2,0.1,0.4,0.1,0.6,0.1
		c0.3,0,0.6,0.1,0.9,0.2c1.5,0.5,3.2,0.8,5.3,0.8l0.3,0c0.4,0,0.7,0,1.1,0l0.7,0l-0.1-0.2c-1.5-4.8-1.4-9.6,0.1-14.2
		c-0.7,3.1-0.8,6-0.4,8.7c0.6,4.2,2.5,7.9,5.6,10.9c2.1,2,4.7,3.7,7.9,5.1c2.8,1.3,5.8,2,8.6,2.7l0.5,0.1c2,0.5,4,1,6,1.6
		c3,0.9,5.6,2.3,7.7,4.3c0.3,0.3,0.7,0.6,1,1c2,2.6,4.4,4.5,7.3,5.7c0.1,0,0.2,0.1,0.2,0.2c0.9,1.5,2,2.6,3.4,3.4
		C32,9,32.3,9.1,32.6,9.1c0.4,0,0.7-0.1,1.1-0.4c0.1-0.1,0.3-0.2,0.4-0.3c0.5-0.5,0.9-1.1,1.2-1.9c0-0.1,0.1-0.1,0.2-0.1
		c0.3,0,0.7-0.1,1.1-0.2c5.8-1.2,9.9-5.6,10.6-11.7c0-0.2,0-0.3,0-0.5c0-0.4,0.1-0.8,0.2-1.1c0.1-0.5,0.4-0.9,0.6-1.3
		C48-8.6,48.1-8.8,48.2-9c0.1-0.2,0.2-0.3,0.2-0.5c0.2-0.4,0.4-0.8,0.5-1.2c0.2-0.6,0.3-1.3,0.1-1.9c-0.1-0.3-0.2-0.3-0.3-0.3
		c-0.1,0-0.1,0-0.2,0.1c-0.2,0.1-0.3,0.2-0.5,0.3c-0.1,0.1-0.1,0.1-0.2,0.2c-0.1,0.1-0.2,0.1-0.2,0.2c-0.2,0.1-0.4,0.3-0.6,0.4
		c-0.1,0-0.1,0.1-0.2,0.1c-0.1,0-0.1,0-0.2-0.1l0.3-0.2c0.5-0.4,1-0.9,1.5-1.3c0.1-0.1,0.2-0.3,0.2-0.4c-0.1-0.9-0.4-1.7-0.9-2.2
		c-0.7-0.7-1.4-1-2.2-1c-0.2,0-0.3,0-0.5,0c0-0.3-0.1-0.4-0.4-0.6c-1.6-0.9-3.2-1.3-4.8-1.3l-0.3,0c-1.1,0-2.2-0.3-3.4-1
		c-0.4-0.2-0.8-0.4-1.1-0.5c-1-0.3-2.1-0.4-3-0.4c0.4-0.1,0.8-0.1,1.3-0.1c0.3,0,0.6,0,0.9,0l0.2,0c0.1,0,0.3,0,0.4,0
		c0.2,0,0.3,0,0.4-0.1c0.8-0.3,1.7-0.8,2.4-1.2C37.8-22,37.9-22,38-22c0.1,0,0.1,0,0.2,0l0.2,0.1c0.4,0.2,0.9,0.3,1.3,0.5
		c1,0.4,1.8,0.6,2.7,0.6c0.2,0,0.5,0,0.7,0c0.6-0.1,1.2-0.2,1.9-0.6c0.3-0.2,0.7-0.5,0.7-1.1c0,0,0,0,0.1-0.1
		c0.1-0.1,0.1-0.1,0.2-0.2c0.1-0.1,0.2-0.1,0.2-0.2c0.5-0.4,0.7-1,0.6-1.6c0-0.2-0.1-0.6-0.4-0.6c-0.1,0-0.2,0-0.4,0.1
		c-0.1,0-0.1,0.1-0.2,0.1c0.2-0.1,0.3-0.2,0.5-0.3c0.4-0.3,0.6-0.7,0.6-1.2c0-1.2-1.3-2.3-2.6-2.3c-0.2,0-0.3,0-0.5,0
		c-0.4,0.1-0.9,0.2-1.1,0.7c0,0,0,0,0,0l-0.2,0c-0.3,0-0.5,0-0.8-0.1l-0.1,0c-0.4-0.1-0.9-0.2-1.3-0.2c-0.2,0-0.3,0-0.5,0
		c-0.2,0-0.4,0.1-0.6,0.1l-0.1,0c-0.2-0.7-0.6-1.5-1.1-2.1c-1.1-1.4-2.6-2.5-4.6-3.1c-1.4-0.5-3-0.7-4.6-0.7c-0.8,0-1.7,0.1-2.6,0.2
		c-3.5,0.5-6,2.4-7.4,5.7c-0.2,0.6-0.4,1.1-0.5,1.7c-0.1,0.3-0.1,0.6-0.2,0.8c-0.4,1.4-0.9,2.7-1.6,3.9c-1.2,2.1-2.7,3.6-4.6,4.6
		c-1.5,0.8-3.1,1.2-4.9,1.2c-0.7,0-1.5-0.1-2.3-0.2c-0.2,0-0.3-0.1-0.5-0.1c0.5,0,1.1-0.1,1.6-0.1c2.4-0.2,4.6-1,6.6-2.2
		c2.6-1.7,4.2-3.7,4.9-6.3c0.4-1.5,0.9-2.9,1.6-4.3c0.4-0.8,0.9-1.8,1.7-2.5c1-1.1,2.4-1.9,4.2-2.4c0.5-0.1,1-0.3,1.5-0.5
		c0.3-0.1,0.5-0.3,0.6-0.6c0.3-0.8,0.4-1.5,0.2-2.3c-0.2-1.1-0.7-2.1-1.6-3.1c-0.7-0.8-1.5-1.4-2.4-1.9c-0.4-0.3-0.8-0.6-1.2-0.9
		c-0.3-0.3-0.5-0.6-0.4-1c0-0.6,0.1-0.6,0.2-0.6c0.1,0,0.2,0,0.5,0.1c0.1,0,0.2,0.1,0.3,0.1l0.7,0.3c0.4,0.2,0.8,0.3,1.2,0.5
		c0.9,0.4,1.7,0.5,2.5,0.5c0.4,0,0.9-0.1,1.3-0.2c1.5-0.4,2.5-1.3,3-2.7c0.1-0.4,0.1-0.7-0.1-1c-0.1-0.2-0.3-0.3-0.5-0.3
		c-0.2,0-0.4,0.2-0.5,0.3c-0.1,0.1-0.1,0.2-0.1,0.3c0,0,0,0.1,0,0.1c-0.1,0.5-0.3,0.8-0.6,1.1c0.5-0.7,0.7-1.4,0.7-2.2
		c0-0.8-0.6-1.4-1.5-1.4c0,0-0.1,0-0.1,0c-0.3,0-0.5,0.2-0.5,0.5c0,0.2,0,0.4,0,0.6c0,0.1,0,0.2,0,0.2c0,0.1,0,0.2,0,0.3
		c0,0.2,0,0.4,0,0.6c-0.1,0.4-0.3,0.7-0.8,0.9c0,0-0.1,0-0.1,0c0.1-0.1,0.3-0.2,0.3-0.3c0.2-0.3,0.3-0.6,0.4-0.9
		c0.2-0.8,0-1.5-0.6-1.9c-0.3-0.2-0.7-0.3-1-0.3c-0.1,0-0.3,0-0.4,0c-0.5,0-1,0.1-1.5,0.2l-0.2,0.1c-0.5,0.1-0.9,0.2-1.3,0.2
		c-0.3,0-0.7-0.1-1-0.1l-0.2,0c-2.5-0.5-4.8-0.7-7-0.7L14.1-50z"/>
	<path inkscape:connector-curvature="0" class="st1" d="M34.7-20.4c0,0-3.7-4.5-10.1-1.9C18.8-20,21-13.6,21-13.6s1-4,4-5.5
		C29.3-21.3,34.7-20.4,34.7-20.4L34.7-20.4z"/>
	<path inkscape:connector-curvature="0" class="st1" d="M16.3-22.3c0.8-0.8,0.8-1.7,1.1-2.7c0.5-1.9,1.1-3.6,2.3-5.2
		c1.2-1.5,2.6-2.6,4.4-3.3c1.6-0.6,3.6-0.4,3.3-2.8l-0.5-2c-4,0-7.8,1.8-9.4,5.9c-1.4,3.5,0.2,7.8-3.9,13.7
		C14-19.1,15.9-21.9,16.3-22.3L16.3-22.3z"/>
	<g class="st2">
		<path inkscape:connector-curvature="0" class="st3" d="M14.7-20.6c0.1-0.2,0.1-0.5,0.2-0.8C14.7-21.2,14.7-20.9,14.7-20.6z"/>
	</g>
	
		<linearGradient id="SVGID_1_" gradientUnits="userSpaceOnUse" x1="44227.0938" y1="18.6448" x2="44256.0938" y2="-114.2052" gradientTransform="matrix(-1 0 0 1 44206.4531 50.957)">
		<stop  offset="0.3836" style="stop-color:#FAA100"/>
		<stop  offset="0.6584" style="stop-color:#BF73F2"/>
		<stop  offset="0.6649" style="stop-color:#C370E6"/>
		<stop  offset="0.6852" style="stop-color:#CC68C7"/>
		<stop  offset="0.7081" style="stop-color:#D461AB"/>
		<stop  offset="0.7341" style="stop-color:#DB5B95"/>
		<stop  offset="0.7643" style="stop-color:#E05784"/>
		<stop  offset="0.8017" style="stop-color:#E35479"/>
		<stop  offset="0.8543" style="stop-color:#E55272"/>
		<stop  offset="1" style="stop-color:#E65270"/>
	</linearGradient>
	<path inkscape:connector-curvature="0" class="st4" d="M-32.4-36c-15.2,1.5-17,16.7-17,16.7s-0.8,7,1.1,13.9
		C-47.1-17.9-37-26.6-37-26.6S-34.8-33.8-32.4-36L-32.4-36z"/>
	<path inkscape:connector-curvature="0" class="st5" d="M-36.2-30.2c0,0-3.2-0.3-7.5,4.9c4.1-7.5,9.4-7.6,9.4-7.6L-36.2-30.2z"/>
	
		<linearGradient id="SVGID_2_" gradientUnits="userSpaceOnUse" x1="44210.9648" y1="20.386" x2="44241.9648" y2="-121.124" gradientTransform="matrix(-1 0 0 1 44206.4531 50.957)">
		<stop  offset="0.3836" style="stop-color:#FAA100"/>
		<stop  offset="0.6584" style="stop-color:#BF73F2"/>
		<stop  offset="0.6649" style="stop-color:#C370E6"/>
		<stop  offset="0.6852" style="stop-color:#CC68C7"/>
		<stop  offset="0.7081" style="stop-color:#D461AB"/>
		<stop  offset="0.7341" style="stop-color:#DB5B95"/>
		<stop  offset="0.7643" style="stop-color:#E05784"/>
		<stop  offset="0.8017" style="stop-color:#E35479"/>
		<stop  offset="0.8543" style="stop-color:#E55272"/>
		<stop  offset="1" style="stop-color:#E65270"/>
	</linearGradient>
	<path inkscape:connector-curvature="0" class="st6" d="M-27.9-38.9c-0.8,14,7.4,7.5,11.7,15c1.2,6.5,4.8,10.6,4.8,10.6
		S-37-8.5-37.4-27.1c0.9-4,4.8-7.9,7.2-10c-0.5,1.1-6.6,17.8,13.7,16.5c-7,0.6-17.1-6.7-12.3-17.7C-28.2-38.7-27.9-38.9-27.9-38.9
		L-27.9-38.9z"/>
	<path inkscape:connector-curvature="0" class="st7" d="M-21-18.7c-5.3-2-14.2-2-11.7-15.4c-0.4-0.3-2.4,2.9-1.9,2.5
		C-37-19.5-26.5-20.2-21-18.7L-21-18.7z"/>
	<path inkscape:connector-curvature="0" class="st8" d="M-14.3-13.9c5.1,2,1-3.7,0.2-4.6c-1.7-2.1-5.9-1.4-8.2-2.1
		c-1.3-0.4-6.5-1.2-8.3-6.1c-0.8-2.2-1.1-5.8,0.6-10.1c-0.4-0.3-3.1,2.6-2.6,2.3C-36.9-15.3-16.5-22.2-14.3-13.9L-14.3-13.9z"/>
	<path inkscape:connector-curvature="0" class="st9" d="M36.6-6c0.1,0.4,0.4,0.9,0.7,1.2c0.1,0,0.1,0,0.2-0.1
		c0.5,0.3,1.3,0.3,1.9,0.3c0.4,0,0.9,0.1,1.3,0c0.5-0.2,0.5-0.8,0.7-1.2c0.4-0.8,1.7-0.8,1.7-1.9c0-0.5,0.1-1.2,0-1.7
		c-0.1-0.4-0.5-0.3-0.9-0.3c-1.1,0-2.2,0-3.3,0l-1.5,1.1c-0.4-0.1-0.7,0.7-0.8,1C36.5-7.1,36.5-6.4,36.6-6z"/>
	<path inkscape:connector-curvature="0" class="st10" d="M41.8-7.5c0.2,0.1,0.5,0.4,0.6,0.6c0.1,0.1,0.1,0.2,0.2,0.2
		c0.5,0,0.5-0.6,0.4-1c0-0.4-0.2-0.8-0.3-1.2c-0.2,0-0.2,0.2-0.4,0.3c-0.1,0-0.3,0-0.5,0c-0.2,0-0.5-0.1-0.7-0.1L41.8-7.5z"/>
	
		<linearGradient id="SVGID_3_" gradientUnits="userSpaceOnUse" x1="44206.2773" y1="11.5098" x2="44208.2773" y2="-72.4402" gradientTransform="matrix(-1 0 0 1 44206.4531 50.957)">
		<stop  offset="0" style="stop-color:#FAA7B5"/>
		<stop  offset="0.3836" style="stop-color:#FAA100"/>
		<stop  offset="0.7317" style="stop-color:#BF73F2"/>
	</linearGradient>
	<path inkscape:connector-curvature="0" class="st11" d="M-19,13.1c0.1,0.1,0.1,0.1,0.1,0.1c2,1.9,3.1,4.3,3.7,7
		c0.4,1.8-0.1,3.3-0.9,4.8c0,0,0,0-0.1,0.1c-0.2-0.5-0.3-1-0.5-1.5c-0.4-1.2-0.9-2.3-1.7-3.3c-0.3-0.4-13.6-7.8-12.2-24.1
		c0-0.1,0-0.2,0-0.3c0.2,0.2,0.5,0.5,0.7,0.7c0.9,0.7,1.9,1.1,3,1.4c2,0.5,3.9,1,5.9,1.5c2.2,0.5,4.5,1.1,6.6,1.9
		c1.2,0.5,2.4,1.1,3.4,1.8c1.6,1.1,3,2.4,4.2,4c0.7,0.9,1,1.6,1.3,2.6c0.2-0.5,0.1-2-0.2-3c-0.3-1-0.8-1.9-1.5-2.6
		c0.2,0.1,0.3,0.1,0.5,0.2C-4.7,5.5-3,6.8-1.7,8.6c0.8,1.2,1.3,2.6,1.4,4.1c0,0,0,0,0,0.1C0.1,10.9,0,7.8-2,5.6
		C-1.3,5.8-0.7,6.1,0,6.3c0.6,0.2,0.9,0.5,1.2,1c1.4,2.1,2.5,4.4,3.1,6.9c0.5,1.9,0.6,3.8,0.1,5.8c-0.6,2.2-1.9,3.9-3.7,5.2
		c-1.2,0.9-2.6,1.6-4.1,2.2c-0.1,0-0.2,0.1-0.3,0.1c0,0,0,0-0.1,0.1c0.5-0.1,0.9-0.3,1.4-0.4c2.1-0.6,4-1.4,5.8-2.7
		c1.6-1.1,2.8-2.6,3.4-4.4c0.5-1.7,0.5-3.4,0.1-5.1c-0.6-2.5-1.7-4.7-3.1-6.7C3.8,8.1,3.8,8,3.7,8c0,0,0,0,0-0.1
		c0.1,0,0.1,0,0.1,0.1c2.9,1.5,5.5,3.4,7.6,6c2,2.5,3.5,5.3,4.2,8.4c0.9,4-0.1,7.5-2.7,10.6c-1.6,2-3.6,3.5-5.9,4.7
		c-2.9,1.6-5.9,2.6-9.2,3.1c-1.8,0.3-3.7,0.3-5.5,0c-1-0.2-1.7-0.5-2.8-1.1c0.1,0.1,0.3,0.2,0.4,0.4c1,0.8,2.2,1.2,3.4,1.4
		c2,0.4,4,0.4,6.1,0.2c3.1-0.4,6.1-1.2,9-2.6c0.3-0.1,0.6-0.3,0.9-0.4c0,0.3,0,0.5,0,0.7c0,0.3,0.2,0.5,0.5,0.6
		c0.3,0,0.4-0.1,0.5-0.3c0-0.2,0.1-0.4,0.1-0.7c0.1-0.5,0.3-0.9,0.6-1.3c0,0,0.1-0.1,0.1-0.1c0,0,0,0,0.1,0c0,0.2,0,0.3,0,0.5
		c0,0.3,0,0.7,0,1c0,0.1,0.1,0.2,0.1,0.2c0.1,0,0.2,0,0.3-0.1c0.1-0.2,0.3-0.4,0.3-0.6c0.1-0.4,0.2-0.9,0.3-1.3
		c0.1-0.3,0.2-0.5,0.4-0.8c0.2-0.2,0.4-0.2,0.5,0.1c0.1,0.3,0.1,0.6,0.1,0.9c0,0.1,0,0.2,0,0.3c0,0.1,0.1,0.1,0.1,0.2
		c0.1-0.1,0.2-0.1,0.2-0.2c0.1-0.2,0.1-0.4,0.1-0.5c0-0.4,0-0.8,0-1.2c0-0.2,0.1-0.4,0.2-0.6c0.1-0.2,0.3-0.2,0.4,0
		c0.1,0.3,0.1,0.7,0.2,1c0,0.2,0.1,0.4,0.1,0.7c0.3-0.2,0.3-0.5,0.4-0.7c0.1-0.6,0.1-1.3,0.2-1.9c0-0.5,0.2-0.9,0.5-1.3
		c0.5-0.8,1-1.6,1.4-2.3c0.2-0.4,0.5-0.4,0.7,0c0.3,0.5,0.4,1,0.7,1.5c0.1,0.2,0.2,0.4,0.3,0.7c0,0.1,0.1,0.2,0.2,0.3
		c0.3-0.2,0.3-0.4,0.3-0.7c-0.1-0.4-0.2-0.7-0.3-1.1c-0.1-0.4-0.2-0.8-0.3-1.2c0-0.2,0-0.4,0.1-0.5c0.1-0.2,0.3-0.3,0.4-0.1
		c0.2,0.2,0.3,0.4,0.5,0.6c0.1,0.1,0.2,0.2,0.4,0.2c0.1-0.1,0.2-0.3,0.2-0.4c0-0.3-0.1-0.6-0.2-0.9c-0.2-0.6-0.5-1.1-0.7-1.7
		c-0.1-0.4-0.2-0.9-0.2-1.3c0-0.1,0.1-0.3,0.2-0.3c0.1,0,0.3,0.1,0.3,0.1c0.4,0.4,0.7,0.8,1.1,1.2c0.1,0.1,0.2,0.2,0.3,0.3
		c0,0,0.1,0,0.1,0c0-0.2,0-0.5-0.1-0.7c-0.1-0.4-0.3-0.7-0.5-1c-0.3-0.5-0.7-1-1-1.5c-0.6-0.9-1-2-1.3-3.1c-0.2-0.8-0.4-1.6-0.7-2.3
		c0-0.1-0.1-0.2-0.1-0.3c0.2,0.3,0.4,0.6,0.6,1c0.4,0.7,0.9,1.3,1.6,1.7c0.3,0.2,0.7,0.4,1.1,0.6c1.9,0.7,3.9,1.4,5.7,2.3
		c0.5,0.3,1,0.6,1.5,0.9c0.6,0.4,0.8,1,0.6,1.8c-0.1,0.5-0.3,1-0.4,1.6c-0.3-0.5-0.6-1-0.9-1.4s-0.7-0.8-1.3-1.1
		c0.1,0.1,0.1,0.1,0.1,0.2c0.8,1.1,1.3,2.4,1.6,3.7c0,0.1,0,0.3,0,0.4c-0.2,1-0.1,1.9,0,2.9c0,0.2,0,0.4,0,0.6
		c0,0.1-0.1,0.2-0.2,0.2c-0.1,0-0.2,0-0.2-0.1c-0.2-0.3-0.4-0.5-0.5-0.8c-0.5-1.2-1-2.3-1.5-3.5C24.7,28,24,26.5,23,25.3
		c-0.5-0.6-1-1-1.6-1.4c-0.1-0.1-0.3-0.1-0.4-0.2c1,1,1.2,2.4,1.3,3.7c0.1,1.7,0,3.4,0,5.2c0,1.9,0.2,3.7,0.7,5.5
		c0,0.1,0,0.2-0.1,0.2c-0.2,0.3-0.4,0.6-0.5,0.9c-0.3,0.7-0.5,1.3-0.8,2c-0.2,0.4-0.2,0.4-0.6,0.4c-0.5,0-0.7,0.2-1,0.5
		c-0.2,0.2-0.3,0.2-0.4,0c-0.1-0.3-0.2-0.6-0.4-0.9c-0.1-0.1-0.2-0.2-0.3-0.3c-0.1,0.1-0.2,0.2-0.2,0.3c0,0.4,0,0.7-0.1,1.1
		c0,0.2,0,0.4-0.1,0.5c0,0.1-0.2,0.2-0.2,0.2c-0.1,0-0.2-0.1-0.2-0.2c-0.1-0.3-0.1-0.5-0.2-0.8c-0.1-0.2-0.2-0.2-0.3-0.1
		c-0.9,1.3-2.2,2.2-3.5,2.9c-0.4,0.2-0.8,0.5-1.2,0.7c0,0-0.1,0-0.1,0c0-0.4,0.1-0.9,0.1-1.3c0,0-0.1,0-0.1-0.1
		c-0.1,0.1-0.3,0.2-0.4,0.3c-0.3,0.3-0.5,0.6-0.7,0.9c-0.5,0.6-1.2,1-1.8,1.2c0.2-0.7,0.4-1.3,0.6-2c0,0-0.1,0-0.1,0
		c-0.1,0.1-0.1,0.2-0.2,0.2c-0.2,0.2-0.3,0.5-0.4,0.7c-0.6,1.1-1.5,1.7-2.7,1.9c-0.8,0.1-1.6,0.2-2.5,0.3c-0.6,0-1.2,0.1-1.7,0.4
		c-0.4,0.2-0.8,0.3-1.2,0.4c-0.1,0-0.2,0-0.2,0c0-0.1,0-0.2,0-0.3c0.2-0.4,0.4-0.7,0.6-1.1c0.1-0.1,0.1-0.3,0.2-0.4c0,0,0,0-0.1-0.1
		C2.2,46.9,2.1,47,2,47c-0.5,0.3-1.1,0.5-1.6,0.8c-0.5,0.3-1.1,0.3-1.7,0.4c-1.8,0.1-3.5,0-5.2-0.5c-1-0.3-2-0.8-2.9-1.5
		c0.1,0,0.2,0,0.3,0c1,0.2,2.1,0.4,3.1,0.4c0.7,0,1.4-0.1,2.1-0.5c0.1-0.1,0.2-0.2,0.2-0.3c-0.1-0.1-0.3-0.1-0.4-0.1
		c-0.3,0-0.7,0.2-1,0.2c-1.1,0.1-2.1-0.2-3.1-0.4c-2.4-0.7-4.7-1.8-6.7-3.3c-0.5-0.4-1-0.7-1.5-1c-1-0.6-1.8-1.5-2.5-2.5
		c-0.1-0.1-0.1-0.2-0.2-0.4c-0.1-0.4,0-0.7,0.3-0.9c0.2-0.1,0.5-0.2,0.8-0.3c3.7-0.9,6.4-3.9,6.8-7.6c0.2-1.4,0.4-2.8,0.3-4.2
		c-0.2-3.3-1.3-6.1-3.5-8.5c-1.3-1.4-2.8-2.6-4.5-3.6C-18.9,13.1-18.9,13.1-19,13.1L-19,13.1z"/>
	<path inkscape:connector-curvature="0" class="st12" d="M27.9,34.7c-1.6-12.1-6.9-9.4-10.5-16.2c-0.2,0.3-0.6-1.8,0.3,2
		c0.9,3.9,3.4,2.1,5.8,6.5C26.6,32.6,26,33.1,27.9,34.7L27.9,34.7z"/>
	<path inkscape:connector-curvature="0" class="st13" d="M11.8,34.5c-0.6-3.5-5.5-3.3-9.7-1.8c-4.6,1.6-14.1,2.1-14.8,0.2
		c-0.4-0.4-1.1,1.4-1.1,1.4s7.2,7.9,19.3-0.4c-0.5,0.8,4.3,3,4.3,3S11.2,37.2,11.8,34.5L11.8,34.5z"/>
	<path inkscape:connector-curvature="0" class="st12" d="M-13.2,1.1c0.3-0.7,2.4-0.2,2.6,0.8c-3.1,3.6,5.1,10.1-2.5,18.7
		C-8.1,7.4-18.8,6.9-13.2,1.1L-13.2,1.1z"/>
	<path inkscape:connector-curvature="0" class="st8" d="M-13.2,1.1c0.3-0.7,0.2-0.5,0.4,0.5c-3.1,3.6,5.2,8.8-0.3,18.9
		C-8.1,7.4-18.8,6.9-13.2,1.1z"/>
	
		<linearGradient id="SVGID_4_" gradientUnits="userSpaceOnUse" x1="44229.5938" y1="2.8028" x2="44208.5938" y2="-32.1072" gradientTransform="matrix(-1 0 0 1 44206.4531 50.957)">
		<stop  offset="0" style="stop-color:#F6E8A0"/>
		<stop  offset="1" style="stop-color:#E65271"/>
	</linearGradient>
	<path inkscape:connector-curvature="0" class="st14" d="M-1.7,3.7C13.4,19.6-5.7,17-12,27.8c0,0.2,0,0.4,0,0.6c0,1.5-0.4,2.9-1,4.2
		c5.8-8.7,20.6-1,17.8-18.7C4.6,12.9,2.5,3.9-1.7,3.7L-1.7,3.7z"/>
	
		<linearGradient id="SVGID_5_" gradientUnits="userSpaceOnUse" x1="44225" y1="-17.8371" x2="44208" y2="-47.9411" gradientTransform="matrix(-1 0 0 1 44206.4531 50.957)">
		<stop  offset="0" style="stop-color:#F6E8A0"/>
		<stop  offset="1" style="stop-color:#E65271"/>
	</linearGradient>
	<path inkscape:connector-curvature="0" class="st15" d="M-1.7,3.7C-8,0.7-13.4,0.6-13.1,1.5c12.4,8.4,2.4,17,0.1,25.2
		c0.2,0.7,1.2,0.9,1.2,1.6c0,0.1,0,0.2,0,0.2c0.2-0.8,0.6-1.1,1-1.5C-5.2,21.3,13.1,19.3-1.7,3.7L-1.7,3.7z"/>
	<path inkscape:connector-curvature="0" class="st16" d="M-3.7,4c9.6,14.3-8.3,17-8.2,21.6C-13.3,16.2,3.9,12.2-12.2,1
		C-12.5,0.1-9.9,0.9-3.7,4L-3.7,4z"/>
	
		<linearGradient id="SVGID_6_" gradientUnits="userSpaceOnUse" x1="44186.1836" y1="4.1385" x2="44188.1836" y2="-31.0315" gradientTransform="matrix(-1 0 0 1 44206.4531 50.957)">
		<stop  offset="0" style="stop-color:#F6E8A0"/>
		<stop  offset="1" style="stop-color:#E65271"/>
	</linearGradient>
	<path inkscape:connector-curvature="0" class="st17" d="M23.1,28.8c0.8-1.3-0.1-2.8-1-4.2c-0.8-1.3-2.8-0.9-4.1-4l0.1,2.4
		c1.5,2.6-1,6.1-1.7,8.6c-1.2,4.1-2.5,7.9-0.9,12c0.1,0.3,0.2,0.6,0.3,0.9c0.8-0.6,1.4-1.2,2.1-2c0.4-0.6,0.3,1.5,0.9,1.1
		c0.4-0.3,0-1.8,0.4-2.1c0.5-0.4,0.7,1.9,1.1,1.4c0.8-1.2,1.2-0.4,1.6-0.8c0.3-0.3,1-2.8,1.3-3.1c0.3-0.3,0.5-0.7,0.8-1
		c-0.2-1.8-0.5-3.8-1.1-5.4C22.2,31,22.2,30.3,23.1,28.8L23.1,28.8z"/>
	<path inkscape:connector-curvature="0" class="st16" d="M1.8,47.5c0,0,0.1,0,0.1,0c0.4,0-1.1,2-0.7,2c0.8,0,1.8-0.8,2.5-0.8
		c1.6-0.1,3.2-0.1,4.5-0.7c1.3-0.6,1.9-2.5,2.2-2.6c0.3-0.1-0.7,2.2-0.4,2.1c0.5-0.2,0.9-0.4,1.2-0.7c1.3-1.9,1.7-11.1-0.2-10.8
		c-2,0.2,3.2-0.7,3.2-0.6c1.7,6.5-2.1,10.5-1.9,10.3c0.2-0.3,0.4-0.5,0.6-0.6c0.4-0.2-0.3,1.6,0.1,1.3c1.2-0.7,2-1.2,2.7-1.8
		c0,0,0-0.1,0.1-0.1c0.5,0.2,3.7,1,1.3-10.4c3.7,7.4,0.8,10.3,1.1,10c1.3-1.4,1.6-4.8,1.7-6.8c0.2-1.9-1-6.2-2.6-7.7
		c-1.1-1-1.1,0.2-1.5,1.2c-0.7,1.6-1.9,2.9-3,4.2c-0.8,1-1.8,1.7-2.8,2.5c-1,0.9-1.5,2.3-2.4,3.3c-0.8,0.9-1.8,1.7-2.5,2.6
		c-0.9,1.1-1.4,2.3-2.4,3.3C2.5,47,2.1,47.2,1.8,47.5L1.8,47.5z"/>
	
		<linearGradient id="SVGID_7_" gradientUnits="userSpaceOnUse" x1="44187.9375" y1="-30.8547" x2="44199.9375" y2="20.6253" gradientTransform="matrix(-1 0 0 1 44206.4531 50.957)">
		<stop  offset="0" style="stop-color:#E65271"/>
		<stop  offset="0.3836" style="stop-color:#FAA100"/>
	</linearGradient>
	<path inkscape:connector-curvature="0" class="st18" d="M8.8,48.5c2.2,0,3.6-1.1,5.5-2.1c1.5-0.8,3.4-0.9,4.7-2
		c1.7-1.6,2.5-3.1,2.8-5.4c0.4-2.6,0.4-5.9-0.1-8.5c-0.3-1.3-1.2-4-2.2-5l-1.2,0.8c-2.4,6.1-9.5,8.6-12.1,14.6c-0.8,1.8-1.1,4-1.1,6
		C5,48.8,7.2,48.5,8.8,48.5L8.8,48.5z"/>
	<path inkscape:connector-curvature="0" class="st19" d="M-13.4,33.3c-1.3,2-3.4,3.5-5.8,4c-0.6,0.1-1.7,0.5-0.6,1.8
		c1.2,1.8,2.8,2.5,3.7,3.2c3.6,2.7,2.1,3,4.2,3.2c0.8,0.1,0.6,0.2,1,0s-0.3,0.1-0.6,0.3c-2.4,1.6-2.2-1.6-1.2-0.9
		c3,2.3,10,4,11.9,3.6c0.3,0,2.2-1.2,2.5-1.2c0.4,0-1.1,2-0.7,2c0.8,0,1.8-0.8,2.5-0.8c1.5-0.1,6.1-2.2,6.1-7.8c0-1.7,0.1-2.9-0.1-4
		C8.1,28.6-9,40.1-13.4,33.3L-13.4,33.3z"/>
	<path inkscape:connector-curvature="0" class="st10" d="M7,38.4c-0.8,1-5.9,2.8-5.9,2.8s-8.5,2.9-16.4-5.4c4,3.2,11.1,1.9,16.2,1.3
		c0.7-0.1-1.5,0.6-0.9,0.8c1.9,0.7,3.7-1.3,5.6-0.9C6.4,37.1,6.9,37.5,7,38.4L7,38.4z"/>
	<path inkscape:connector-curvature="0" class="st19" d="M0.5,39.8c-3.1,0.8-6.3-0.4-6.9-0.4c0.3,0.4,0.7,1.4,3.1,1.8
		c0.5,0.1,1.6,0,2.2,0c1,0,1.6-0.2,2.5-0.7c0.6-0.3,1.9-0.6,2.4-0.5c0,0,4.8-0.4,3.2-2c-1.6-1.6-3.9,2.1-9,0.9
		C-2.1,39-0.9,39.8,0.5,39.8z"/>
	<path inkscape:connector-curvature="0" class="st20" d="M-4.3,46.5c-2,1.3-5.4,0.2-5.9,0.2c0,0,0,0.1,0.1,0.1
		c3,2.3,7.5,2.1,9.4,1.8c0,0,0,0,0.1,0c0,0,0,0,0,0c0.4-0.2,1.8-0.9,2.3-1.1c2.9-1.7,7.6-5.2,8-10.8c-1.7,0.7-2.9,1.5-3.8,2.2
		c-0.3,0.2-7.3,7.6-25.9-1.2c0,0-0.5,0.3-0.2,0.9c4.2,6.7,11.9,8.7,24.1,2.3C2.1,43,1.3,44.9-4.3,46.5L-4.3,46.5z"/>
	
		<linearGradient id="SVGID_8_" gradientUnits="userSpaceOnUse" x1="44228.4258" y1="-5.1677" x2="44185.4258" y2="-41.8057" gradientTransform="matrix(-1 0 0 1 44206.4531 50.957)">
		<stop  offset="0" style="stop-color:#F6E8A0"/>
		<stop  offset="1" style="stop-color:#E65271"/>
	</linearGradient>
	<path inkscape:connector-curvature="0" class="st21" d="M7.6,8.6c6.9,7,9.7,12.3,6.4,18c-5.4,9.2-22-0.4-29.2,8.9
		c0.8-0.9,2.4-2.6,4-3.5c5.4-3.5,15.4-2.4,18.6-5.1C11.5,23.4,12.5,16.4,7.6,8.6L7.6,8.6z"/>
	
		<linearGradient id="SVGID_9_" gradientUnits="userSpaceOnUse" x1="44189.4531" y1="-30.8363" x2="44231.4531" y2="-42.2053" gradientTransform="matrix(-1 0 0 1 44206.4531 50.957)">
		<stop  offset="0" style="stop-color:#FAA7B5"/>
		<stop  offset="0.3836" style="stop-color:#FAA100"/>
		<stop  offset="0.7317" style="stop-color:#BF73F2"/>
	</linearGradient>
	<path inkscape:connector-curvature="0" class="st22" d="M-14.8,23.3c0-0.5,1.1-3.2,0.9-3.8c-1.4-5.4-7.7-8-7.7-8s-7-2.8-8.2-15.8
		c-1.3-0.9-1.1,1-1.1,1.9C-30.1,14.6-16,12.7-14.8,23.3L-14.8,23.3z"/>
	
		<linearGradient id="SVGID_10_" gradientUnits="userSpaceOnUse" x1="44078.3242" y1="17.7928" x2="44275.3242" y2="-87.4672" gradientTransform="matrix(-1 0 0 1 44206.4531 50.957)">
		<stop  offset="0" style="stop-color:#FAA7B5"/>
		<stop  offset="0.3836" style="stop-color:#FAA100"/>
		<stop  offset="0.7317" style="stop-color:#BF73F2"/>
	</linearGradient>
	<path inkscape:connector-curvature="0" class="st23" d="M9.1-4.7C9-4.7,8.9-4.6,8.8-4.6C8.2-4.4,7.5-4.2,6.9-4.1
		C6.7-4,6.5-3.9,6.3-3.8c0,0,0,0.1,0,0.1c0.2,0,0.4,0.1,0.7,0.1c0.9,0,1.8,0,2.7,0c1.3,0,2.5,0,3.7,0.4c0.6,0.2,1.2,0.5,1.7,0.8
		c5.7,3.2,9.8,7.8,12.2,13.9c0.5,1.2,0.9,2.5,1.2,3.8c0,0.1,0,0.1,0,0.3c-0.1-0.1-0.2-0.1-0.2-0.1c-3.5-2.4-7.3-4-11.5-4.8
		c-1.5-0.3-3-0.4-4.5-0.5c-0.1,0-0.3,0-0.3-0.1C9.7,7.7,7,6,4.1,4.5C1.8,3.4-0.6,2.7-3.1,2.2C-6.3,1.6-9.5,1-12.7,0.4
		c-3.9-0.8-7.9-1.6-11.7-2.9c-2.4-0.8-4.8-1.8-6.9-3.2c-1.6-1.1-3-2.3-4.1-4c-0.4-0.6-0.6-1.2-0.9-1.9c-0.1-0.1-0.1-0.2-0.2-0.3
		c-2.1-2.1-3-4.6-2.6-7.5c0.2-2.2,1-4.2,2.1-6c0.1-0.2,0.2-0.4,0.3-0.6c0.1,0.5,0.1,1,0.2,1.5c0.5,3.3,2.2,5.8,5.1,7.5
		c1.7,1,3.5,1.6,5.4,2c2.1,0.5,4.2,0.8,6.3,1.2c2.6,0.5,5.1,0.8,7.6,1.6c0.5,0.2,1,0.3,1.4,0.5c0.6,0.2,1.2,0.5,1.7,0.9
		c1.8,1.3,3.7,2.3,5.7,3.1c0.1,0,0.1,0,0.2,0.1c0,0,0,0,0,0c0,0-0.1,0-0.1,0c-2.3,0-4.5,0-6.8,0c-2,0-4.1-0.1-6.1-0.3
		c-2.8-0.4-5.5-1.1-8.1-2.1c-3.1-1.2-6-2.7-8.9-4.4c-0.1,0-0.2-0.1-0.3-0.1c0.1,0,0.1,0.1,0.2,0.1c3.1,2.4,6.4,4.4,10.1,5.8
		c2.5,1,5.2,1.6,7.9,1.9c2.4,0.3,4.8,0.2,7.2,0.1C-5.8-6.7-3.8-6.8-1.7-7c0.2,0,0.4,0,0.5,0.1c2.1,0.6,4.2,1,6.3,1.3
		c1.3,0.2,2.5,0.5,3.7,0.7C8.9-4.9,9-4.8,9.1-4.7C9.1-4.8,9.1-4.7,9.1-4.7L9.1-4.7z"/>
	<path inkscape:connector-curvature="0" class="st7" d="M-29.1-11.7c8.1,9.7,29.2,4.6,38.2,7C3.4-8-1.2-7.4-1.2-7.4
		S-20.6-5.3-29.1-11.7z"/>
	<path inkscape:connector-curvature="0" class="st16" d="M33.1,25.1c-0.3,0-0.5-0.1-0.7-0.1c-0.7-0.2-1.5-0.4-2.2-0.7
		c-0.7-0.3-1.3-0.8-1.8-1.2c-1.1-0.9-2.1-1.8-3.2-2.7c-0.9-0.7-1.8-1.4-2.9-1.7c-0.4-0.1-0.7-0.2-1.1-0.2c1.5,0.7,2.3,2,3.1,3.4
		c-0.1,0-0.1,0-0.1,0c-2.2-1.1-4.4-2.3-6.4-3.8c-0.5-0.4-0.9-0.9-1.2-1.5c-0.5-1-1.1-1.9-1.6-2.9c0,0-0.1-0.1-0.1-0.2
		c0.5,0.1,0.9,0.2,1.3,0.3c1.7,0.4,3.4,1.2,5,2c2.5,1.3,4.9,2.8,7.2,4.4c0.1,0,0.1,0.1,0.2,0.1c0,0,0-0.1-0.1-0.1
		c-2.7-2.7-5.8-5-9.4-6.4c-1.5-0.6-3.1-1.1-4.8-1.2c-0.1,0-0.1,0-0.2-0.1c-0.4-0.4-0.7-0.9-1.1-1.4c1,0.2,2,0.4,2.9,0.6
		c2.7,0.6,5.3,1.4,7.8,2.5c1.8,0.8,3.6,1.8,5.1,3.2c1.9,1.8,3.4,4,4.2,6.6C32.9,24.2,33,24.6,33.1,25.1z"/>
	<path inkscape:connector-curvature="0" class="st8" d="M-13,0.4c0.8,0.3,1.7,0.6,2.6,1C1,4.9,4.7,7.8,4.7,7.8l11.4,8.4
		c0,0,1.9-1.4,4.3,0.4c-1.6-2-6.7-3.5-6.7-3.5s-0.2-1.5-1.9-2.7c4.5,1.5,12,1.1,17.2,5.8C25.1,5.1,15.3,13.6,5.8,6.6
		C4.7,6-9.7,2.3-2.5,2.5c7.2,0.3,11.9-4.6,17.9-3C9.7-2.5,4.8,0.7-3.1,1.3C-1.8,1-0.2,0.4,0.5-0.5c-2.8,2-8.4,2.1-9.7,1.7
		C-10.4,1-11.6,0.7-13,0.4L-13,0.4z"/>
	<path inkscape:connector-curvature="0" class="st5" d="M14.2-3c-8.2-3.3-37.3,6.2-50.4-8.5c0,0-1,0.4,4.2,6.3
		C-11.6,4.5,3.7-4.7,14.2-3L14.2-3z"/>
	
		<radialGradient id="SVGID_11_" cx="87780.9062" cy="11475.8018" r="14.8715" gradientTransform="matrix(-0.4579 0.1387 0.2675 0.883 37143.793 -22302.7656)" gradientUnits="userSpaceOnUse">
		<stop  offset="9.100000e-03" style="stop-color:#FFFFFF"/>
		<stop  offset="1" style="stop-color:#FFFFFF;stop-opacity:0"/>
	</radialGradient>
	<path inkscape:connector-curvature="0" class="st24" d="M26.9,10c2.4,1.4,0.5-2-2-4C15.3-0.7,11,7,1.5,3.3
		C16,11.3,17.4,1.3,26.9,10L26.9,10z"/>
	<path inkscape:connector-curvature="0" class="st12" d="M26.1,8.1C28.6,9.5,27.3,8,24.9,6C15.3-0.7,11,7,1.5,3.3
		C10.8,8.5,16.7-0.6,26.1,8.1L26.1,8.1z"/>
	
		<radialGradient id="SVGID_12_" cx="78541.3438" cy="34470.2227" r="23.25" gradientTransform="matrix(-0.4785 0 0 0.4785 37562.9648 -16480.7812)" gradientUnits="userSpaceOnUse">
		<stop  offset="9.100000e-03" style="stop-color:#FFFFFF"/>
		<stop  offset="1" style="stop-color:#FFFFFF;stop-opacity:0"/>
	</radialGradient>
	<path inkscape:connector-curvature="0" class="st25" d="M-21.2,11.7c-4.4-4.1-1-13-1-13l-3.2-0.7C-25.3-1.9-28.5,6.7-21.2,11.7
		L-21.2,11.7z"/>
	
		<radialGradient id="SVGID_13_" cx="78541.3438" cy="34470.2227" r="23.25" gradientTransform="matrix(-0.4785 0 0 0.4785 37562.9648 -16480.7812)" gradientUnits="userSpaceOnUse">
		<stop  offset="9.100000e-03" style="stop-color:#FFFFFF"/>
		<stop  offset="1" style="stop-color:#FFFFFF;stop-opacity:0"/>
	</radialGradient>
	<path inkscape:connector-curvature="0" class="st26" d="M-13.6,18.5c3.3-6-5.5-14.1-0.8-17c-0.1-0.4-2.7-1.7-2.6-1.3
		c-5.9,9,3.8,11.2,2.5,16.8C-21.2,7.7-21.3,5.8-18,0c0,0-0.4-0.5-0.8-0.2C-23.9,3.6-25.3,8-13.6,18.5L-13.6,18.5z"/>
	<path inkscape:connector-curvature="0" class="st12" d="M-2.6,6.4c0.2-2.8,2.2,1.7,2.5,4.9C0.1,23-11.8,20.1-12.3,29.6
		C-13.5,18.8-0.7,19.1-2.6,6.4L-2.6,6.4z"/>
	<path inkscape:connector-curvature="0" class="st13" d="M8.9,11.1c0.2-2.8,5.8,4.4,6.1,7.5C13.1,38.6-7.6,26.4-13,33.8
		C-8.5,25.7,20.4,37,8.9,11.1L8.9,11.1z"/>
	
		<linearGradient id="SVGID_14_" gradientUnits="userSpaceOnUse" x1="44159.1016" y1="-72.7931" x2="44170.1016" y2="-97.6131" gradientTransform="matrix(-1 0 0 1 44206.4531 50.957)">
		<stop  offset="4.100000e-03" style="stop-color:#FAA7B5"/>
		<stop  offset="0.3836" style="stop-color:#FAA100"/>
	</linearGradient>
	<path inkscape:connector-curvature="0" class="st27" d="M46.7-28c-0.3-0.3-0.6-0.5-0.8-0.7c-0.2-0.2-0.5-0.3-0.7-0.4
		c-0.6-0.3-1.2-0.3-1.8,0c-1,0.5-2,0.5-3,0.4c-0.3,0-0.5-0.2-0.6-0.5c-1-2.1-2.8-3.5-5-4.4c-0.2-0.1-0.4-0.2-0.4-0.5
		c-0.1-0.7-0.2-1.4,0-2c0.3-1.1,0.9-1.9,1.9-2.5c1-0.6,2-1,3.1-1.3c1.3-0.3,2.7-0.5,4-0.5c0.7,0,1.4,0.1,2,0.3
		c1.5,0.5,2.4,1.4,2.8,3c0.2,1,0.4,2,0.5,3c0.2,2.3-0.4,4.3-1.9,6.1C46.7-28.1,46.7-28.1,46.7-28z"/>
	<path inkscape:connector-curvature="0" class="st28" d="M42.4-28.2c0.1-0.7,1.4-0.9,2-0.9c1.1,0,1.7,0.6,2.4,1.4
		c0.1,0.1,0.2,0.3,0.3,0.4c1.2-0.9,1.9-2.2,1.7-3.5c-0.3-2.3-3.2-3.8-6.4-3.4c-2.2,0.3-4,1.5-4.8,2.9c0.6,0.7,0.8,1.7,1.6,2.3
		C39.9-28.2,41.4-28.2,42.4-28.2z"/>
	
		<linearGradient id="SVGID_15_" gradientUnits="userSpaceOnUse" x1="44232.3711" y1="-0.9771" x2="44241.3711" y2="-69.5771" gradientTransform="matrix(-1 0 0 1 44206.4531 50.957)">
		<stop  offset="0" style="stop-color:#FAA7B5"/>
		<stop  offset="0.3836" style="stop-color:#FAA100"/>
		<stop  offset="0.7317" style="stop-color:#BF73F2"/>
	</linearGradient>
	<path inkscape:connector-curvature="0" class="st29" d="M-35-6.5c0.7-0.3,1.2-0.4,1.6-0.3c-0.5,2.5-0.7,5-0.7,7.6
		c0.1,2.8,0.6,5.5,1.8,8.1c0.2,0.3,0.3,0.6,0.5,0.9c0-0.1,0-0.1,0-0.1c-0.7-1.7-1-3.4-1.1-5.2C-33,1.7-32.7-1-32.1-3.7
		c0-0.1,0-0.1,0.1-0.2c0.4,0.3,0.8,0.5,1.1,0.8c0,0,0,0.2,0,0.2C-31-1.3-31,0.4-30.8,2c0.3,2.3,0.8,4.6,1.7,6.8
		c1.2,3.1,2.7,5.9,4.6,8.6c0,0.1,0.1,0.1,0.1,0.2c0,0,0,0,0,0.1c-0.3-0.1-0.5-0.2-0.8-0.3c-1.8-0.6-3.5-1.4-5.1-2.2
		c-0.3-0.1-0.5-0.3-0.7-0.5c-2.3-2.1-3.7-4.7-4.3-7.7c-0.1-0.5-0.2-0.9-0.3-1.4c0,0.5,0,1,0.1,1.5c0.2,2.4,0.7,4.7,1.5,7
		c0.2,0.6,0.1,1.1,0,1.6c0,0.2-0.1,0.3-0.2,0.5c-0.1-0.1-0.3-0.2-0.4-0.4c-0.7-1.1-1.1-2.2-1.4-3.4c-0.5-1.8-0.9-3.7-1.1-5.6
		c-0.2-1.8-0.4-3.5-0.4-5.3c0-1.8,0.1-3.6,0.7-5.3c0.3-0.8,0.7-1.6,1.2-2.2C-35.6-6.1-35.3-6.3-35-6.5C-35.1-6.5-35.1-6.5-35-6.5z"
		/>
	<path inkscape:connector-curvature="0" class="st5" d="M-26.9,17.7c0,0-4.4-0.6-6.3-3.7c-1.9-3.1-2.4-8.3-2.4-8.3s-1-7.8,2.2-12.4
		C-35.5,10-26.9,17.7-26.9,17.7L-26.9,17.7z"/>
	
		<linearGradient id="SVGID_16_" gradientUnits="userSpaceOnUse" x1="44239.918" y1="-4.690601e-02" x2="44248.918" y2="-68.6469" gradientTransform="matrix(-1 0 0 1 44206.4531 50.957)">
		<stop  offset="0" style="stop-color:#FAA7B5"/>
		<stop  offset="0.3836" style="stop-color:#FAA100"/>
		<stop  offset="0.7317" style="stop-color:#BF73F2"/>
	</linearGradient>
	<path inkscape:connector-curvature="0" class="st30" d="M-35-6.5C-35.1-6.5-35.1-6.5-35-6.5c-1,0.4-1.7,1-2.3,1.7
		c-0.9,1.1-1.3,2.4-1.6,3.8c-0.4,2-0.4,4.1-0.3,6.2c0.1,1.2,0.3,2.3,0.4,3.5c0,0,0,0.1,0,0.2c-0.1-0.1-0.1-0.1-0.2-0.1
		c-3.4-3.5-6-7.6-7.6-12.2c0-0.1,0-0.3,0-0.4c1-3.2,2.4-6.2,4.2-9c0.7-1.2,1.6-2.3,2.4-3.5c0.1-0.1,0.1-0.2,0.2-0.3
		c0,0.6,0.3,1.1,0.1,1.6c-0.3,0.7-0.5,1.5-0.5,2.3c0,0.3,0.1,0.6,0.3,0.9c0.2-0.6,0.4-1.2,0.8-1.6c0.1,0.2,0.2,0.5,0.1,0.7
		c-0.3,1-0.5,1.9-0.5,3c0,0.3,0.1,0.6,0.2,0.9c0.3-0.8,0.7-1.4,1.3-2c0,0,0.1,0.1,0.1,0.1c0.7,1.5,1.6,2.8,2.7,4
		C-35.1-6.7-35.1-6.6-35-6.5L-35-6.5z"/>
	<path inkscape:connector-curvature="0" class="st5" d="M-38.5-10.4c0,0-5,9.8-2.7,18.2c0.3,0.2-0.5-0.4-1.4-1.4
		c-0.1-0.2-1.8-11.2,1.6-16.1c-4.6,5.4-2.4,15.1-2.6,14.8c-0.4-0.6-0.8-1.3-1-2c-2.3-11,5.7-17.5,5.7-17.5L-38.5-10.4z"/>
	<path inkscape:connector-curvature="0" class="st0" d="M38-45.6c-0.2-0.3-0.4-0.6-0.6-1c-0.2-0.3-0.2-0.7-0.1-1
		c0.1-0.4,0.4-0.6,0.9-0.5c0.4,0.1,0.7,0.1,1.1,0.1c0.4,0,0.4,0,0.5-0.4c0-0.1,0-0.2,0.1-0.3c0.1-0.4,0.4-0.7,0.8-0.8
		c0.4-0.1,0.7,0.2,1,0.5c0.7,1,0.1,2.3-1.1,2.4c-0.4,0-0.8,0-1.1,0c-0.1,0-0.1,0-0.2,0c0,0,0,0-0.1,0.1c0.1,0.1,0.2,0.3,0.3,0.4
		c0.3,0.2,0.6,0.2,0.9,0.2c2-0.2,4,0,5.7,1.2c1,0.7,1.7,1.6,2.2,2.6c0,0,0,0,0,0c0.1,0.2,0.2,0.4,0,0.6c-0.1,0.1-0.4,0-0.5,0
		c-0.8-0.2-1.5-0.6-2.3-0.8c-1.1-0.3-2.3-0.3-3.5-0.3c-1.6,0.1-3.1,0.3-4.6,0.9c-1.7,0.6-3.2,1.5-4.4,2.7c-0.1,0.1-0.3,0.3-0.5,0.4
		c-0.3,0.2-0.5,0.1-0.5-0.2c0-0.2,0-0.5,0.1-0.7c0.6-2.4,2-4.1,4.2-5.2C36.9-45.2,37.5-45.4,38-45.6z"/>
	
		<linearGradient id="SVGID_17_" gradientUnits="userSpaceOnUse" x1="44253.1094" y1="-29.1969" x2="44249.1094" y2="-76.937" gradientTransform="matrix(-1 0 0 1 44206.4531 50.957)">
		<stop  offset="0" style="stop-color:#FAA7B5"/>
		<stop  offset="0.3836" style="stop-color:#FAA100"/>
		<stop  offset="0.7317" style="stop-color:#BF73F2"/>
	</linearGradient>
	<path inkscape:connector-curvature="0" class="st31" d="M-48-0.6c-0.1-8.7,2.7-16.3,8.6-22.7c-0.1,0.6-0.2,1.2-0.2,1.8
		c-0.1,1-0.1,2-0.2,3c0,0.2-0.1,0.4-0.2,0.5c-2.2,3.2-4.2,6.4-5.8,9.9c-0.8,1.8-1.5,3.6-1.9,5.5C-47.9-2-47.9-1.3-48-0.6L-48-0.6z"
		/>
	
		<linearGradient id="SVGID_18_" gradientUnits="userSpaceOnUse" x1="44180.8867" y1="10.9604" x2="44182.8867" y2="-72.9896" gradientTransform="matrix(-1 0 0 1 44206.4531 50.957)">
		<stop  offset="0" style="stop-color:#FAA7B5"/>
		<stop  offset="0.3836" style="stop-color:#FAA100"/>
		<stop  offset="0.7317" style="stop-color:#BF73F2"/>
	</linearGradient>
	<path inkscape:connector-curvature="0" class="st32" d="M23.3,28c1,1.8,2.1,3.5,2.5,5.6c0.1,0.3,0,0.7,0,1.1
		c-0.1,2,0.1,3.9,0.7,5.8c0.1,0.2,0.1,0.3,0.1,0.5c0,0.1-0.1,0.3-0.2,0.4c-0.1,0.1-0.3,0.1-0.4,0c-0.5-0.3-0.9-0.7-1.1-1.2
		c-0.6-1-0.9-2-1.1-3.1c-0.6-3-0.7-6-0.6-9C23.3,28.1,23.3,28.1,23.3,28z"/>
	<path inkscape:connector-curvature="0" class="st33" d="M23.9,39.6c0.2,0.4,1,1.3,1.3,1.5l0.7,0.5c-0.7-1.8-1-3.7-1-5.6
		c0-1.6,0.5-3.1,0.6-4.8c0.1-1.3-0.5-2-1.2-3.1c-0.3-0.5-0.7-1.5-1.4-1.5c-0.3,0.8-0.3,1.7-0.3,2.6c0,1-0.2,2-0.1,2.9
		C22.6,34,23.6,38.9,23.9,39.6z"/>
	<path inkscape:connector-curvature="0" class="st0" d="M48.3-38.4C48.2-38.4,48.2-38.4,48.3-38.4c-0.8-1.6-2.2-2.3-3.8-2.4
		c-2.7-0.2-5.3,0.3-7.8,1.4c-1,0.5-1.9,1.2-2.4,2.3c-0.2,0.5-0.3,1-0.5,1.5c-0.5,0-1.2-0.5-1.2-1.1c0-0.2,0.1-0.4,0.2-0.6
		c0.3-0.7,0.9-1.2,1.5-1.7c1.5-1.2,3.3-2,5.2-2.5c2.5-0.6,5-0.6,7.5,0.1c0.6,0.2,1.1,0.5,1.7,0.8c0.4,0.2,0.6,0.6,0.6,1.1
		C49-39,48.8-38.6,48.3-38.4z"/>
	<path inkscape:connector-curvature="0" class="st34" d="M48.3-38.4C48.2-38.4,48.2-38.4,48.3-38.4c-0.8-1.6-2.2-2.3-3.8-2.4
		c-2.7-0.2-5.3,0.3-7.8,1.4c-1,0.5-1.9,1.2-2.4,2.3c-0.2,0.5-0.3,1-0.5,1.5c-0.5,0-1.2-0.5-1.2-1.1c0-0.2,0.1-0.4,0.2-0.6
		c0.3-0.7,0.9-1.2,1.5-1.7c1.5-1.2,3.3-2,5.2-2.5c2.5-0.6,5-0.6,7.5,0.1c0.6,0.2,1.1,0.5,1.7,0.8c0.4,0.2,0.6,0.6,0.6,1.1
		C49-39,48.8-38.6,48.3-38.4z"/>
	<path inkscape:connector-curvature="0" class="st35" d="M20.9-13.3c0-1,0.2-1.9,0.6-2.8c0.9-1.8,2.3-2.9,4-3.6
		c1.5-0.7,3.1-0.9,4.8-0.8c0,0,0,0,0.1,0c-1.2,0.2-2.2,0.5-3.3,0.9c-1.8,0.7-3.4,1.8-4.6,3.3c-0.7,0.8-1.2,1.7-1.5,2.7
		C20.9-13.5,20.9-13.4,20.9-13.3z"/>
	<path inkscape:connector-curvature="0" class="st35" d="M34.4,0.7c1.8,1.1,2.2,3.7,1,5.1C35.7,4,35.3,2.3,34.4,0.7z"/>
	<path inkscape:connector-curvature="0" class="st35" d="M37.4-9.4c0.9-0.7,1.9-0.9,3-0.9c0.4,0,0.9,0.1,1.3,0.1
		c0.2,0,0.5,0,0.7-0.1c0.4-0.1,0.6,0,0.8,0.4c0.3,1,0.5,2,0.4,3c-0.1,0.5-0.2,1-0.4,1.4c-0.8,1.8-3.1,2.5-4.8,1.5
		C38.2-4,38-4.1,37.8-4.3c-0.2-0.2-0.4-0.4-0.6-0.6c0.1-0.1,0.2-0.2,0.3-0.3c0.2-0.2,0.3-0.5,0.2-0.7c-0.2-0.9,0.2-1.5,0.9-1.9
		c0.5-0.3,1.1-0.5,1.7-0.7c0.3-0.1,0.6-0.2,0.9-0.2c0.1,0,0.1,0,0.2,0.1c0.5,0.3,0.8,0.7,1,1.2c0.1-0.3,0.1-0.8,0-1.2
		c-0.1-0.2,0-0.8,0.1-1c0,0,0,0,0,0c-0.1,0-0.1,0.1-0.2,0.1c-0.6,0.4-1.3,0.5-1.9,0.6c-0.8,0.1-1.6,0.3-2.4,0.8
		c-0.9,0.6-1.3,1.4-1.4,2.4c0,0,0,0.1,0,0.1C35.9-7.2,36.1-8.4,37.4-9.4z"/>
	
		<linearGradient id="SVGID_19_" gradientUnits="userSpaceOnUse" x1="44164.2539" y1="-53.363" x2="44168.2539" y2="-60.732" gradientTransform="matrix(-1 0 0 1 44206.4531 50.957)">
		<stop  offset="0" style="stop-color:#FAA7B5"/>
		<stop  offset="0.3836" style="stop-color:#FAA100"/>
		<stop  offset="0.7317" style="stop-color:#BF73F2"/>
	</linearGradient>
	<path inkscape:connector-curvature="0" class="st36" d="M38.5-6.1c0-0.9,0.8-1.7,1.7-1.7c0.9,0,1.7,0.8,1.7,1.7s-0.8,1.7-1.7,1.7
		C39.2-4.4,38.5-5.2,38.5-6.1z"/>
	<g>
		<defs>
			<rect id="SVGID_20_" x="-4.5" y="12.5" width="1.2" height="1.4"/>
		</defs>
		<clipPath id="SVGID_21_">
			<use xlink:href="#SVGID_20_"  style="overflow:visible;"/>
		</clipPath>
		<g style="clip-path:url(#SVGID_21_);">
			
				<use xlink:href="#cvfc"  width="6" height="7" x="-3" y="-3.5" transform="matrix(-0.2012 0 0 0.2012 -3.8802 13.231)" style="overflow:visible;"/>
		</g>
	</g>
	<path inkscape:connector-curvature="0" class="st10" d="M46.1-34.8c0.3-0.2,0.8-0.1,0.9,0.2c0.7,1.4,0.7,3-0.1,4.4
		c-0.4,0.8-1.6,0.2-1.2-0.6c0.5-0.9,0.6-2.1,0.1-3C45.7-34.2,45.8-34.6,46.1-34.8z"/>
	<path inkscape:connector-curvature="0" class="st1" d="M-27.9-38.8c-0.4,12.3,7.2,8.3,10.5,13.5c0.3,0.3,0.4,0.7,0.6,1
		C-20.6-26.4-31.2-25-27.9-38.8L-27.9-38.8z"/>
	<path inkscape:connector-curvature="0" class="st5" d="M-33.7-14.8c10.4,9,31,8,32.5,7.9C-9.8-13.1-35.7-7.3-36.6-26
		C-38.3-20.7-36.2-16.9-33.7-14.8L-33.7-14.8z"/>
	<path inkscape:connector-curvature="0" class="st1" d="M-17-24.8c0,0,0-2.7,0-4.6c0-1.9-2.4-0.9-3.3,1.8C-18-26.8-17-24.8-17-24.8z
		"/>
	<path inkscape:connector-curvature="0" class="st1" d="M-18.3-25.7c1.7,3.1,0,5.8-0.3,5.9c1,0.1,2.9,1.9,3.4,2.5
		c0.7,1,0.8,2.4,0.8,3.5c1.4,0.1,2.4,0.9,3.7,1.2c-1.1-1-2.6-2.2-3.2-3.6c-0.6-1.2-1.1-2.6-1.5-3.9c-0.3-1.1-0.6-2.1-0.8-3.2
		c-0.1-0.8-0.6-1.9-0.5-2.7c0,0-0.2-7.2,1.3-10.7c-2.7,0.9-4.2,3.1-4.6,4c-0.6,1-1.6,3.4-0.3,4.9C-19.7-27.5-18.8-26.6-18.3-25.7
		L-18.3-25.7z"/>
	<path inkscape:connector-curvature="0" class="st35" d="M-43.8-35c5.5-7.6,12.8-12.4,21.9-14.5c3-0.7,6.1-0.9,9.2-0.9
		c7.6,0,15.2,0,22.9,0c5.1,0,10.3,0,15.4,0c1.2,0,2.4,0.1,3.6,0.5c1.1,0.4,2,1.1,2.5,2.2c0.7,1.6,0.1,3.7-1.4,4.8
		c-1.1,0.8-2.4,1.1-3.7,1c-0.4,0-0.7-0.1-1.1-0.1c-0.1,0-0.2,0-0.3,0c-0.1,0-0.2,0.1-0.3,0.1c0.1,0.1,0.1,0.2,0.2,0.3
		c1.4,1.2,2.4,2.6,2.8,4.4c0.2,0.6,0.2,1.3,0.2,2c0,0.1,0,0.1,0,0.2c0,0.3,0.1,0.4,0.4,0.5c1,0,2,0.1,3,0.2c0.5,0,0.9,0.2,1.5,0.2
		c-0.1-0.1-0.1-0.2-0.2-0.2c-0.8-0.4-1.3-1-1.6-1.8c-0.3-1-0.5-1.9-0.5-3c0.1-1.6,0.7-3.1,1.8-4.3c0.9-1.1,2.1-2,3.4-2.6
		c0.2-0.1,0.2-0.2,0.2-0.3c-0.2-0.5-0.1-1.1,0-1.6c0.1-0.3,0.3-0.6,0.6-0.7c0.7-0.4,1.5-0.4,2.2-0.1c0-0.1,0-0.2,0.1-0.3
		c0.2-0.8,0.7-1.1,1.5-1.6h0.6c0,0,0,0.1,0.1,0.1c1.4,0.2,2,1.5,1.8,2.7c0,0.3-0.1,0.6-0.2,0.9c0.6,0.2,1.3,0.3,1.9,0.5
		c2.9,1,4.8,3,5.6,5.9c0.3,1.2,0.1,2.3-0.8,3.1c-0.1,0.1-0.1,0.2,0,0.3c0.2,1.1,0.5,2.2,0.5,3.4c0.2,2.7-0.7,5-2.5,7
		c-0.1,0.1-0.1,0.2-0.1,0.4c0.1,0.6,0.3,1.2,0.3,1.8c0.2,1.2-0.3,2.2-1.1,3.1c-0.1,0.1-0.2,0.2-0.2,0.3c-0.2,0.7-0.7,1.1-1.3,1.5
		c-1.3,0.6-2.6,0.8-4,0.5c-0.9-0.2-1.7-0.5-2.5-0.9c-0.4-0.2-0.7-0.3-1,0c-0.1,0-0.1,0.1-0.2,0.1c-0.1,0.1-0.2,0.2-0.2,0.3
		c0,0.1,0.2,0.2,0.3,0.3c0.6,0.2,1.3,0.4,2,0.4c0.5,0,1,0,1.5,0.1c1.6,0.2,3.1,0.8,4.5,1.6c0.1,0.1,0.2,0.1,0.3,0.1
		c1.8,0.3,3.3,1.7,3.6,3.5c0,0.2,0,0.4,0.1,0.5c0.8,1.2,0.8,2.4,0.4,3.7c-0.3,0.8-0.7,1.6-1,2.4c-0.2,0.4-0.3,0.9-0.4,1.3
		c-0.1,1.3-0.3,2.6-0.6,3.8c-0.7,2.6-2,4.9-4.1,6.7c-2.1,1.8-4.6,2.8-7.4,3.1c-0.2,0-0.4,0.1-0.5,0.3c-0.6,1.4-1.6,2.3-3,2.8
		c-0.4,0.1-0.7,0.2-1.1,0c-0.5-0.2-1-0.5-1.4-0.8c-1.2-0.8-2.1-1.9-2.9-3.1c-0.1-0.1-0.1-0.2-0.2-0.2c-0.1,0-0.3-0.1-0.4,0
		c-0.1,0-0.1,0.2-0.1,0.4c0,0.1,0.1,0.3,0.2,0.4c2,2.9,3.3,6.2,3.9,9.7c0,0.1,0.1,0.2,0.2,0.3c0.5,0.5,1,1,1.5,1.5
		c0.8,0.8,1.3,1.8,1.5,2.9c0.1,0.3,0.1,0.6,0.1,0.9c0,0.1-0.1,0.2-0.1,0.3C34,23,33.9,23,33.8,22.9c-0.1-0.2-0.2-0.4-0.4-0.6
		c-0.1-0.1-0.2-0.2-0.3-0.4c0,0.1,0,0.1,0,0.1c0.5,1.3,0.9,2.7,1.1,4.2c0,0.4,0.1,0.8,0.1,1.2c0,0.3-0.2,0.5-0.4,0.4
		c-0.1,0-0.2-0.1-0.3-0.2c-0.8-0.8-1.7-1.4-2.7-1.9c0,0,0,0,0,0.1c0,0.1-0.1,0.3-0.1,0.4c-0.3,1.7-0.7,3.3-1.2,4.9
		c-0.4,1.2-0.6,2.5-0.4,3.8c0.1,0.8,0.4,1.5,1.1,2c0,0,0.1,0.1,0.1,0.2c-0.1,0-0.1,0.1-0.2,0.1c-0.9,0.2-1.9,0.1-2.4-1
		c-0.1-0.1-0.1-0.2-0.2-0.4c-0.1,0.2-0.2,0.4-0.3,0.6c-0.2,0.9-0.2,1.7-0.2,2.6c0.1,1.1,0.5,2.1,1,3c0.1,0.2,0.2,0.5,0.3,0.8
		c0.1,0.5-0.1,0.8-0.6,0.8c-0.2,0-0.5,0-0.7-0.1c-1.2-0.5-2.2-1.3-2.8-2.4c-0.1-0.1-0.1-0.2-0.2-0.3c-0.5,0.5-0.9,1-1.2,1.6
		c-0.2,0.4-0.3,0.8-0.6,1.2c-0.1,0.3-0.3,0.3-0.4,0c0-0.1-0.1-0.1-0.1-0.2c-0.1-0.2-0.2-0.2-0.4,0c-0.1,0.2-0.2,0.3-0.2,0.5
		c-0.3,0.9-0.8,1.6-1.6,2.2c0,0-0.1,0.1-0.2,0.1c0-0.3,0.1-0.5,0.1-0.7c0-0.2,0.1-0.4,0.1-0.7c-0.1,0-0.1,0-0.1,0
		c-0.1,0-0.1,0.1-0.2,0.1c-2.9,2-6.1,3.4-9.6,4.2c-1.1,0.2-2.2,0.3-3.1,0.9c0,0,0,0-0.1,0c-0.2,0.1-0.3,0-0.5-0.1
		c-0.1-0.1-0.3-0.1-0.4-0.1c-0.4,0-0.8,0.1-1.3,0.1c-0.4,0-0.8,0.1-1.2,0.2C2.6,50.3,2,51,1.4,51H0.9c-0.1,0-0.3-0.4-0.4-0.6
		c-0.2-0.3-0.5-0.6-0.8-0.6c-2.2-0.1-4.3-0.4-6.4-1c-3.2-0.8-6.2-2-8.9-4c-2-1.4-3.6-3.1-4.8-5.2c-0.2-0.4-0.4-0.9-0.6-1.4
		c-0.1-0.4-0.2-0.7-0.1-1.1c0.1-0.3,0.3-0.5,0.6-0.4c1.8,0.3,3.2-0.4,4.6-1.4c1.4-1,2.4-2.3,3-3.8c0.9-2.3,0.4-4.4-1.2-6.3
		c-0.2-0.2-0.4-0.4-0.6-0.6c-0.1,0.3-0.1,0.5-0.2,0.8c-0.4,1.3-0.9,2.5-1.8,3.4c-0.5,0.6-0.7-0.1-0.6-1.2c0.3-2.2-0.4-4.1-1.9-5.7
		c-0.1-0.1-0.2-0.2-0.4-0.2c-1.6-0.6-3.3-1.1-4.9-1.7c-2.9-1.1-5.7-2.4-8.3-4c0,0-0.1,0-0.1-0.1c-0.3,0.2-0.4,0.4-0.3,0.7
		c0,0.4,0.1,0.7,0.1,1.1c0,0,0,0.1,0,0.1c0.1,0.6-0.2,0.8-0.7,0.6c-0.3-0.1-0.6-0.4-0.8-0.6c-0.7-0.8-1.1-1.8-1.5-2.7
		c-0.2-0.5-0.4-1-0.6-1.5c-0.1-0.2-0.2-0.4-0.4-0.5c-2.3-1.9-4.4-4-6.2-6.5c-1.6-2.1-2.9-4.3-4-6.6c0-0.1-0.1-0.1-0.1-0.2
		c0,0,0,0-0.1-0.1C-47.8,1.9-47.8,4-47.6,6c-0.2-0.6-0.3-1.2-0.5-1.8c-0.6-2.5-0.8-5-0.6-7.6c0-0.1,0-0.3-0.1-0.4
		c-0.8-2.4-1.3-4.8-1.5-7.4C-51.1-19.9-49-27.9-43.8-35L-43.8-35z M-45.9-8.1c1.6-3.5,3.6-6.8,5.8-9.9c0.1-0.2,0.2-0.3,0.2-0.5
		c0-1,0.1-2,0.2-3c0-0.6,0.2-1.2,0.2-1.8c-5.8,6.4-8.6,14-8.6,22.7c0.1-0.7,0.2-1.3,0.3-1.9C-47.4-4.5-46.7-6.3-45.9-8.1L-45.9-8.1z
		 M-24.4,17.7C-24.4,17.7-24.4,17.7-24.4,17.7c-0.1-0.1-0.1-0.2-0.2-0.3c-1.9-2.7-3.5-5.5-4.6-8.6C-30,6.6-30.6,4.4-30.8,2
		c-0.2-1.6-0.2-3.3,0-4.9c0-0.1,0-0.2,0-0.2c-0.4-0.3-0.8-0.5-1.1-0.8c0,0.1,0,0.2-0.1,0.2C-32.7-1-33,1.7-32.9,4.5
		c0.1,1.8,0.4,3.5,1.1,5.2c0,0,0,0.1,0,0.1c-0.2-0.3-0.4-0.6-0.5-0.9c-1.2-2.6-1.7-5.3-1.8-8.1c-0.1-2.5,0.2-5.1,0.7-7.6
		c-0.4-0.2-0.9-0.1-1.6,0.3c0-0.1,0-0.2-0.1-0.2c-1.1-1.2-2-2.6-2.7-4c0,0,0-0.1-0.1-0.1c-0.5,0.6-1,1.2-1.3,2
		c-0.1-0.3-0.2-0.6-0.2-0.9c-0.1-1,0.2-2,0.5-3c0.1-0.3,0.1-0.5-0.1-0.7c-0.5,0.4-0.6,1-0.8,1.6c-0.2-0.3-0.3-0.6-0.3-0.9
		c0-0.8,0.2-1.6,0.5-2.3c0.2-0.6-0.1-1.1-0.1-1.6c-0.1,0.1-0.2,0.2-0.2,0.3c-0.8,1.2-1.6,2.3-2.4,3.5c-1.8,2.8-3.2,5.8-4.2,9
		c0,0.1-0.1,0.3,0,0.4c1.7,4.6,4.2,8.7,7.6,12.2c0,0,0.1,0.1,0.2,0.1c0-0.1,0-0.1,0-0.2c-0.1-1.2-0.3-2.3-0.4-3.5
		c-0.2-2.1-0.1-4.1,0.3-6.2c0.3-1.4,0.7-2.7,1.6-3.8c0.6-0.8,1.3-1.4,2.2-1.8c-0.2,0.2-0.5,0.4-0.7,0.7c-0.5,0.7-0.9,1.4-1.2,2.2
		c-0.6,1.7-0.7,3.5-0.7,5.3c0,1.8,0.1,3.5,0.4,5.3c0.3,1.9,0.6,3.7,1.1,5.6c0.3,1.2,0.8,2.3,1.4,3.4c0.1,0.1,0.3,0.3,0.4,0.4
		c0.1-0.2,0.2-0.3,0.2-0.5c0.1-0.5,0.2-1.1,0-1.6c-0.8-2.3-1.3-4.6-1.5-7c0-0.5-0.1-1-0.1-1.5c0.1,0.5,0.2,0.9,0.3,1.4
		c0.6,3,2,5.6,4.3,7.7c0.2,0.2,0.5,0.4,0.7,0.5c1.7,0.9,3.4,1.6,5.1,2.2C-24.9,17.5-24.7,17.6-24.4,17.7L-24.4,17.7z M26.7,41
		c0-0.2-0.1-0.3-0.1-0.5c-0.6-1.9-0.8-3.8-0.7-5.8c0-0.4,0-0.7,0-1.1c-0.4-2-1.5-3.8-2.5-5.6c0,0.1,0,0.1,0,0.1c-0.1,3,0,6,0.6,9
		c0.2,1.1,0.5,2.1,1.1,3.1c0.3,0.5,0.6,0.9,1.1,1.2c0.2,0.1,0.3,0.1,0.4,0C26.6,41.3,26.7,41.1,26.7,41z M27.9,25
		c-0.5-0.3-1-0.7-1.5-0.9c-1.8-0.9-3.8-1.6-5.7-2.3c-0.4-0.1-0.7-0.3-1.1-0.6c-0.7-0.4-1.2-1.1-1.6-1.7c-0.2-0.3-0.4-0.6-0.6-1
		c0,0.1,0,0.2,0.1,0.3c0.2,0.8,0.5,1.5,0.7,2.3c0.3,1.1,0.7,2.1,1.3,3.1c0.3,0.5,0.7,1,1,1.5c0.2,0.3,0.4,0.7,0.5,1
		c0.1,0.2,0.1,0.5,0.1,0.7c0,0-0.1,0-0.1,0c-0.1-0.1-0.2-0.2-0.3-0.3c-0.4-0.4-0.7-0.8-1.1-1.2c-0.1-0.1-0.3-0.2-0.3-0.1
		c-0.1,0-0.2,0.2-0.2,0.3c0,0.4,0.1,0.9,0.2,1.3c0.2,0.6,0.5,1.1,0.7,1.7c0.1,0.3,0.2,0.6,0.2,0.9c0,0.1-0.1,0.3-0.2,0.4
		c-0.1-0.1-0.3-0.1-0.4-0.2c-0.2-0.2-0.3-0.4-0.5-0.6c-0.2-0.2-0.3-0.1-0.4,0.1c-0.1,0.2-0.1,0.3-0.1,0.5c0.1,0.4,0.2,0.8,0.3,1.2
		c0.1,0.4,0.2,0.7,0.3,1.1c0,0.2,0,0.5-0.3,0.7c-0.1-0.1-0.1-0.2-0.2-0.3c-0.1-0.2-0.2-0.4-0.3-0.7c-0.2-0.5-0.4-1-0.7-1.5
		c-0.2-0.4-0.4-0.4-0.7,0c-0.5,0.8-0.9,1.6-1.4,2.3c-0.3,0.4-0.5,0.8-0.5,1.3c-0.1,0.6-0.1,1.3-0.2,1.9c0,0.2-0.1,0.5-0.4,0.7
		c-0.1-0.3-0.1-0.5-0.1-0.7c-0.1-0.3-0.1-0.7-0.2-1c-0.1-0.2-0.2-0.3-0.4,0c-0.1,0.2-0.2,0.4-0.2,0.6c0,0.4,0,0.8,0,1.2
		c0,0.2-0.1,0.4-0.1,0.5c0,0.1-0.1,0.1-0.2,0.2c0-0.1-0.1-0.1-0.1-0.2c0-0.1,0-0.2,0-0.3c0-0.3-0.1-0.6-0.1-0.9
		c-0.1-0.3-0.3-0.4-0.5-0.1c-0.2,0.2-0.3,0.5-0.4,0.8c-0.1,0.4-0.2,0.9-0.3,1.3c-0.1,0.2-0.2,0.4-0.3,0.6c0,0.1-0.2,0.1-0.3,0.1
		c-0.1,0-0.1-0.1-0.1-0.2c0-0.3,0-0.7,0-1c0-0.2,0-0.3,0-0.5c-0.1,0-0.1,0-0.1,0c0,0-0.1,0.1-0.1,0.1c-0.3,0.4-0.6,0.8-0.6,1.3
		c0,0.2,0,0.4-0.1,0.7c-0.1,0.3-0.2,0.4-0.5,0.3c-0.3,0-0.4-0.2-0.5-0.6c0-0.2,0-0.4,0-0.7c-0.3,0.2-0.6,0.3-0.9,0.4
		c-2.8,1.4-5.8,2.3-9,2.6c-2,0.2-4.1,0.2-6.1-0.2C-7.8,41.1-9,40.7-10,40c-0.1-0.1-0.3-0.2-0.4-0.4c1.1,0.7,1.8,0.9,2.8,1.1
		c1.8,0.4,3.7,0.3,5.5,0c3.2-0.5,6.3-1.5,9.2-3.1C9.3,36.5,11.3,35,13,33c0.1-0.1,0.2-0.3,0.4-0.4c-3.3,1.6-7.1-1.4-10.9-0.1
		c5.2-2.7,8.2,0.8,11.1-1.5c0.7-0.6,0.9-2-0.8-1.8c-1.6,0.2,2.4-0.6,3.2-4.8c0-0.7-0.1-1.4-0.3-2.1c-0.7-3.2-2.2-5.9-4.2-8.4
		c-2.1-2.6-4.7-4.5-7.6-6c0,0-0.1,0-0.1,0c0,0,0,0.1,0,0.1c0,0.1,0.1,0.1,0.1,0.2c1.4,2.1,2.5,4.3,3.1,6.7c0.4,1.7,0.4,3.4-0.1,5.1
		c-0.6,1.9-1.8,3.3-3.4,4.4c-1.7,1.3-3.7,2.1-5.8,2.7c-0.4,0.1-0.9,0.2-1.4,0.4c0.1-0.1,0.1-0.1,0.1-0.1c0.1,0,0.2-0.1,0.3-0.1
		c1.4-0.6,2.8-1.2,4.1-2.2c1.8-1.3,3.1-3,3.7-5.2c0.5-1.9,0.4-3.9-0.1-5.8c-0.6-2.5-1.7-4.7-3.1-6.9C0.9,6.8,0.6,6.5,0,6.3
		C-0.7,6.1-1.3,5.8-2,5.6c2.1,2.2,2.1,5.3,1.7,7.2c0,0,0-0.1,0-0.1c-0.1-1.5-0.6-2.8-1.4-4.1C-3,6.8-4.7,5.5-6.6,4.4
		c-0.1-0.1-0.3-0.1-0.5-0.2C-6.4,5-5.9,5.9-5.5,6.9c0.3,1,0.4,2.5,0.2,3c-0.3-1-0.6-1.7-1.3-2.6c-1.2-1.5-2.6-2.9-4.2-4
		c-1.1-0.7-2.2-1.4-3.4-1.8c-2.2-0.8-4.4-1.3-6.6-1.9c-2-0.5-3.9-1-5.9-1.5c-1.1-0.3-2.1-0.7-3-1.4C-30-3-30.3-1.8-30.3-0.8
		c-0.1,11.6,9.1,17.9,12,21.1c0.8,0.9,1.3,2.1,1.7,3.3c0.2,0.5,0.3,1,0.5,1.5c0,0,0.1-0.1,0.1-0.1c0.8-1.5,1.3-3.1,0.9-4.8
		c-0.6-2.7-1.7-5.1-3.7-7c0,0,0,0-0.1-0.1c0.1,0.1,0.1,0.1,0.2,0.1c1.7,1,3.2,2.1,4.5,3.6c2.2,2.4,3.3,5.3,3.5,8.5
		c0.1,1.4-0.1,2.8-0.3,4.2c-0.4,3.7-3.1,6.7-6.8,7.6c-0.3,0.1-0.6,0.2-0.8,0.3c-0.4,0.2-0.4,0.5-0.3,0.9c0,0.1,0.1,0.3,0.2,0.4
		c0.6,1,1.5,1.8,2.5,2.5c0.5,0.3,1,0.7,1.5,1c2.1,1.5,4.3,2.6,6.7,3.3c1,0.3,2,0.5,3.1,0.4c0.3,0,0.7-0.2,1-0.2
		c0.1,0,0.3,0.1,0.4,0.1c-0.1,0.1-0.1,0.2-0.2,0.3c-0.6,0.4-1.3,0.5-2.1,0.5C-7,46.6-8,46.4-9,46.2c-0.1,0-0.2,0-0.3,0
		c0.8,0.7,1.8,1.2,2.9,1.5c1.7,0.5,3.5,0.6,5.2,0.5c0.6,0,1.1-0.1,1.7-0.4C0.9,47.5,1.5,47.3,2,47c0.1-0.1,0.2-0.1,0.4-0.1
		c0,0,0,0,0.1,0.1c-0.1,0.1-0.1,0.3-0.2,0.4c-0.2,0.4-0.4,0.7-0.6,1.1c0,0.1,0,0.2,0,0.3c0.1,0,0.2,0,0.2,0c0.4-0.1,0.8-0.3,1.2-0.4
		c0.6-0.3,1.1-0.4,1.7-0.4c0.8-0.1,1.7-0.1,2.5-0.3c1.2-0.2,2.1-0.8,2.7-1.9c0.1-0.3,0.3-0.5,0.4-0.7c0.1-0.1,0.1-0.2,0.2-0.2
		c0,0,0.1,0,0.1,0c-0.2,0.6-0.4,1.3-0.6,2c0.6-0.1,1.3-0.6,1.8-1.2c0.3-0.3,0.5-0.6,0.7-0.9c0.1-0.1,0.2-0.2,0.4-0.3
		c0,0,0.1,0,0.1,0.1c-0.1,0.4-0.1,0.9-0.1,1.3c0,0,0.1,0,0.1,0c0.4-0.2,0.8-0.5,1.2-0.7c1.3-0.8,2.6-1.7,3.5-2.9
		c0.1-0.2,0.2-0.2,0.3,0.1c0.1,0.3,0.1,0.5,0.2,0.8c0,0.1,0.1,0.2,0.2,0.2c0.1,0,0.2-0.1,0.2-0.2c0.1-0.2,0.1-0.4,0.1-0.5
		c0-0.4,0-0.7,0.1-1.1c0-0.1,0.1-0.2,0.2-0.3c0.1,0.1,0.2,0.2,0.3,0.3c0.1,0.3,0.3,0.6,0.4,0.9c0.1,0.3,0.2,0.3,0.4,0
		c0.2-0.3,0.5-0.6,1-0.5c0.4,0,0.5,0,0.6-0.4c0.3-0.7,0.5-1.3,0.8-2c0.1-0.3,0.3-0.6,0.5-0.9c0-0.1,0.1-0.2,0.1-0.2
		c-0.6-1.8-0.7-3.6-0.7-5.5c0-1.7,0-3.5,0-5.2c0-1.3-0.3-2.7-1.3-3.7c0.1,0,0.3,0.1,0.4,0.2c0.6,0.3,1.2,0.8,1.6,1.4
		c1,1.2,1.7,2.7,2.3,4.1c0.5,1.2,1,2.4,1.5,3.5c0.1,0.3,0.3,0.5,0.5,0.8c0,0.1,0.2,0.1,0.2,0.1c0.1,0,0.1-0.1,0.2-0.2
		c0-0.2,0-0.4,0-0.6c0-1-0.1-1.9,0-2.9c0-0.1,0.1-0.3,0-0.4c-0.4-1.3-0.8-2.6-1.6-3.7c0,0,0-0.1-0.1-0.2c0.6,0.3,1,0.6,1.3,1.1
		c0.3,0.5,0.6,0.9,0.9,1.4c0.1-0.5,0.3-1,0.4-1.6C28.8,26,28.5,25.4,27.9,25L27.9,25z M28.6,17.3c-1.5-1.4-3.2-2.4-5.1-3.2
		c-2.5-1.1-5.1-1.9-7.8-2.5c-1-0.2-1.9-0.4-2.9-0.6c0.4,0.5,0.8,1,1.1,1.4c0,0,0.1,0.1,0.2,0.1c1.7,0.2,3.3,0.6,4.8,1.2
		c3.6,1.5,6.6,3.7,9.4,6.4c0,0,0,0.1,0.1,0.1c-0.1,0-0.2-0.1-0.2-0.1c-2.3-1.6-4.7-3.1-7.2-4.4c-1.6-0.8-3.2-1.6-5-2
		c-0.4-0.1-0.8-0.2-1.3-0.3c0.1,0.1,0.1,0.2,0.1,0.2c0.5,1,1.2,1.9,1.6,2.9c0.3,0.6,0.7,1.1,1.2,1.5c2,1.5,4.2,2.7,6.4,3.8
		c0,0,0,0,0.1,0c-0.8-1.3-1.7-2.7-3.1-3.4c0.4,0.1,0.8,0.1,1.1,0.2c1.1,0.3,2.1,1,2.9,1.7c1.1,0.9,2.1,1.9,3.2,2.7
		c0.6,0.5,1.2,0.9,1.8,1.2c0.7,0.3,1.4,0.5,2.2,0.7c0.2,0.1,0.4,0.1,0.7,0.1c-0.1-0.5-0.1-0.9-0.3-1.2C32,21.3,30.5,19.1,28.6,17.3z
		 M15.1-2.5c-0.5-0.3-1.1-0.6-1.7-0.8c-1.2-0.4-2.5-0.4-3.7-0.4c-0.9,0-1.8,0-2.7,0c-0.2,0-0.4-0.1-0.7-0.1c0,0,0-0.1,0-0.1
		C6.5-3.9,6.7-4,6.9-4.1c0.6-0.2,1.2-0.3,1.9-0.5c0.1,0,0.2-0.1,0.3-0.2c0,0,0,0,0-0.1C9-4.8,9-4.9,8.9-4.9C7.6-5.1,6.4-5.4,5.1-5.6
		C3-5.9,0.9-6.3-1.1-6.9C-1.3-7-1.5-7-1.7-7c-2.1,0.1-4.1,0.3-6.2,0.4c-2.4,0.2-4.8,0.2-7.2-0.1c-2.7-0.3-5.4-0.9-7.9-1.9
		c-3.7-1.4-7-3.4-10.1-5.8c-0.1,0-0.1-0.1-0.2-0.1c0.1,0,0.2,0.1,0.3,0.1c2.8,1.7,5.8,3.2,8.9,4.4c2.6,1,5.3,1.7,8.1,2.1
		c2,0.3,4,0.3,6.1,0.3c2.3,0,4.5,0,6.8,0c0,0,0.1,0,0.1,0c0,0,0,0,0,0c-0.1,0-0.1,0-0.2-0.1c-2-0.8-4-1.8-5.7-3.1
		c-0.5-0.4-1.1-0.7-1.7-0.9c-0.5-0.2-0.9-0.4-1.4-0.5c-2.5-0.8-5-1.2-7.6-1.6c-2.1-0.4-4.2-0.8-6.3-1.2c-1.9-0.4-3.7-1.1-5.4-2
		c-2.9-1.7-4.6-4.2-5.1-7.5c-0.1-0.5-0.1-1.1-0.2-1.5c-0.1,0.2-0.2,0.4-0.3,0.6c-1.1,1.9-1.9,3.9-2.1,6c-0.3,2.9,0.5,5.5,2.6,7.5
		c0.1,0.1,0.1,0.2,0.2,0.3c0.3,0.6,0.6,1.3,0.9,1.9c1,1.7,2.4,2.9,4.1,4c2.1,1.4,4.5,2.4,6.9,3.2c3.8,1.3,7.7,2.1,11.7,2.9
		C-9.5,1-6.3,1.6-3.1,2.2c2.5,0.5,4.9,1.2,7.2,2.3C7,6,9.7,7.7,12,10c0.1,0.1,0.2,0.1,0.3,0.1c1.5,0,3,0.2,4.5,0.5
		c4.2,0.8,8,2.4,11.5,4.8c0.1,0,0.1,0.1,0.2,0.1c0-0.1,0-0.2,0-0.3c-0.3-1.3-0.7-2.6-1.2-3.8C24.9,5.3,20.8,0.7,15.1-2.5L15.1-2.5z
		 M48.6-34.2c-0.1-1-0.3-2-0.5-3c-0.3-1.5-1.3-2.5-2.8-3c-0.7-0.2-1.4-0.3-2-0.3c-1.4,0-2.7,0.2-4,0.5c-1.1,0.3-2.2,0.6-3.1,1.3
		c-0.9,0.6-1.6,1.4-1.9,2.5c-0.2,0.7-0.1,1.4,0,2c0,0.3,0.2,0.4,0.4,0.5c2.2,0.9,3.9,2.2,5,4.4c0.1,0.3,0.3,0.4,0.6,0.5
		c1,0.1,2.1,0.1,3-0.4c0.6-0.3,1.2-0.3,1.8,0c0.2,0.1,0.5,0.3,0.7,0.4c0.3,0.2,0.5,0.5,0.8,0.7c0,0,0-0.1,0.1-0.1
		C48.2-29.9,48.9-32,48.6-34.2z M32.5-38.7c0.2-0.1,0.3-0.2,0.5-0.4c1.3-1.2,2.8-2.1,4.4-2.7c1.5-0.6,3-0.8,4.6-0.9
		c1.2-0.1,2.3-0.1,3.5,0.3c0.8,0.2,1.5,0.5,2.3,0.8c0.2,0.1,0.4,0.1,0.5,0c0.2-0.1,0-0.4,0-0.6c0,0,0,0,0,0c-0.5-1-1.2-1.9-2.2-2.6
		c-1.7-1.2-3.7-1.5-5.7-1.2c-0.3,0-0.6,0-0.9-0.2c-0.1-0.1-0.2-0.2-0.3-0.4c0,0,0,0,0.1-0.1c0.1,0,0.1,0,0.2,0c0.4,0,0.8,0.1,1.1,0
		c1.2-0.2,1.8-1.5,1.1-2.4c-0.2-0.3-0.5-0.6-1-0.5c-0.4,0.1-0.7,0.4-0.8,0.8c0,0.1,0,0.2-0.1,0.3c0,0.4-0.1,0.4-0.5,0.4
		c-0.4,0-0.7-0.1-1.1-0.1c-0.5-0.1-0.8,0.1-0.9,0.5c-0.1,0.4-0.1,0.7,0.1,1c0.2,0.3,0.4,0.7,0.6,1c-0.6,0.2-1.2,0.4-1.7,0.7
		c-2.2,1.1-3.6,2.8-4.2,5.2c-0.1,0.2-0.1,0.5-0.1,0.7C32.1-38.6,32.2-38.5,32.5-38.7z M33.7-35.7c0.2-0.5,0.3-1,0.5-1.5
		c0.5-1.1,1.4-1.8,2.4-2.3c2.5-1.1,5.1-1.7,7.8-1.4c1.7,0.1,3,0.8,3.8,2.4c0,0,0,0,0,0c0.5-0.2,0.8-0.6,0.9-1.2
		c0.1-0.5-0.2-0.9-0.6-1.1c-0.5-0.3-1.1-0.6-1.7-0.8c-2.5-0.8-5-0.7-7.5-0.1c-1.9,0.5-3.7,1.3-5.2,2.5c-0.6,0.5-1.2,1-1.5,1.7
		c-0.1,0.2-0.2,0.4-0.2,0.6C32.5-36.2,33.1-35.7,33.7-35.7z M-45.5-23c-2,3.5-3.1,7.3-3.1,7.8c0,1.8,0.1,3.6,0.4,5.4
		C-48.1-9.4-48-9-48-8.6c0.1-0.1,0.1-0.2,0.1-0.2c0.3-1,0.6-2,0.9-3c1.8-5.1,4.5-9.7,7.9-13.9c0.1-0.2,0.2-0.3,0.3-0.5
		c0.7-2.3,1.8-4.3,3.1-6.2c-1.5,0.6-3.2,0.9-5.3,3.3c2.5-4.9,8.5-6.8,8.5-6.8c3.3-3,7.2-5,11.5-6.1c0.3-0.1,0.7-0.2,1-0.3
		c-0.1,0.1-0.2,0.1-0.2,0.1c-3.2,1.1-6.1,2.7-8.8,4.8c-3.3,2.6-5.8,5.8-7.3,9.8c-0.2,0.4-0.2,0.8-0.1,1.3c0.1,0.3,0.2,0.6,0.3,0.9
		c0.7,2.3,1.8,4.4,3.6,6.1c1.7,1.6,3.7,2.6,6,3.2c2.7,0.8,5.4,1.1,8.1,1.4c1.6,0.2,3.2,0.5,4.7,0.7c0.4,0.1,0.8,0.2,1.3,0.3
		c0-0.1,0-0.1-0.1-0.1c-1.2-1.4-2.3-2.9-3.1-4.6c0-0.1-0.2-0.2-0.3-0.2c-0.7-0.2-1.5-0.5-2.2-0.7c-1.1-0.2-2.2-0.3-3.4-0.5
		c-5.9-1.2-7.8-4.4-7.8-4.3c1.8,1.9,4.7,2.5,5.5,2.7c1.8,0.6,3.6,0.8,5.5,0.8c0.5,0,1.1,0,1.7-0.1c-1.7-5.5-1.5-10.8,0.8-16
		c0,0.1,0,0.2,0,0.3c-0.9,3.4-1.2,6.8-0.7,10.3c0.6,4.2,2.4,7.8,5.5,10.8c2.3,2.2,5,3.8,7.9,5.1c2.8,1.2,5.6,2,8.6,2.7
		c2.2,0.5,4.4,1,6.6,1.7c2.9,0.9,5.5,2.2,7.8,4.3c0.3,0.3,0.7,0.6,1,1c1.9,2.4,4.2,4.4,7,5.6c0.2,0.6,0.5,1.2,1,1.9
		c0.7,0.9,1.5,1.7,2.5,2.4c0.3,0.2,0.6,0.3,0.9,0.4c0.4,0.1,0.6-0.1,0.7-0.4c0-0.1,0.1-0.2,0.1-0.3c0.2-0.1,0.4-0.2,0.6-0.3
		c0.1-0.1,0.2-0.2,0.4-0.3c0.5-0.5,0.9-1.1,1.2-1.8c0.1-0.1,0.2-0.2,0.3-0.2c0.4,0,0.7-0.1,1-0.2C42.2,5,46.3,0.7,47-5.5
		c0.1-0.6,0.1-1.1,0.2-1.7c0.2-0.7,0.6-1.3,0.9-1.9c0.3-0.6,0.5-1.1,0.8-1.7c0.2-0.6,0.3-1.2,0.1-1.8c-0.1-0.2-0.2-0.3-0.3-0.2
		c-0.2,0.1-0.4,0.3-0.7,0.5c-0.3,0.2-0.5,0.4-0.8,0.6c-0.2,0.1-0.5,0.1-0.7-0.1c0,0,0.1-0.1,0.1-0.1c0.6-0.5,1.2-1,1.7-1.6
		c0.1-0.1,0.1-0.2,0.1-0.3c-0.1-0.8-0.3-1.6-0.9-2.1c-0.7-0.8-1.6-1.2-2.7-0.9c0-0.4-0.1-0.5-0.3-0.6c-1.5-0.8-3.1-1.3-4.9-1.3
		c-1.3,0-2.4-0.4-3.5-1c-0.3-0.2-0.7-0.4-1.1-0.5c-1.2-0.3-2.4-0.4-3.6-0.4c-0.1,0-0.2,0-0.3,0c0.1-0.1,0.1-0.1,0.2-0.1
		c1-0.2,2-0.3,3-0.2c0.3,0,0.7,0.1,1,0c0.8-0.3,1.6-0.7,2.4-1.1c0.2-0.1,0.4-0.2,0.6-0.1c0.5,0.2,1,0.4,1.5,0.6
		c1,0.5,2.1,0.7,3.3,0.6c0.6-0.1,1.2-0.2,1.8-0.6c0.4-0.2,0.6-0.5,0.7-1c0-0.1,0.1-0.1,0.1-0.2c0.1-0.1,0.3-0.3,0.5-0.4
		c0.4-0.4,0.6-0.9,0.6-1.5c0-0.5-0.2-0.6-0.6-0.4c-0.2,0.1-0.4,0.2-0.6,0c0.3-0.2,0.6-0.3,0.8-0.5c0.4-0.3,0.5-0.7,0.5-1.1
		c0-1.3-1.6-2.4-2.9-2.2c-0.4,0.1-0.8,0.3-1.1,0.7c0,0.1-0.1,0.1-0.2,0.1c-0.3,0-0.7,0-1-0.1c-0.6-0.1-1.2-0.3-1.8-0.2
		c-0.3,0.1-0.6,0.1-0.9,0.2c-0.2-0.8-0.6-1.5-1.1-2.2c-1.2-1.5-2.7-2.5-4.5-3c-2.3-0.8-4.7-0.8-7.1-0.5c-3.5,0.5-5.9,2.4-7.2,5.6
		c-0.3,0.8-0.5,1.7-0.7,2.5c-0.4,1.4-0.9,2.7-1.6,3.9c-1.1,2-2.6,3.6-4.7,4.7c-2.3,1.2-4.7,1.4-7.2,1C4-16,3.6-16.1,3-16.2
		c0.9-0.1,1.8-0.1,2.6-0.2c2.3-0.2,4.5-0.9,6.5-2.2c2.4-1.5,4.1-3.5,4.9-6.3c0.4-1.5,1-2.9,1.6-4.3c0.5-0.9,1-1.8,1.7-2.6
		c1.2-1.3,2.7-2,4.3-2.4c0.5-0.1,1-0.3,1.5-0.5c0.2-0.1,0.4-0.3,0.5-0.5c0.3-0.7,0.4-1.4,0.2-2.2c-0.2-1.2-0.8-2.2-1.6-3.1
		c-0.7-0.8-1.5-1.3-2.3-1.9c-0.4-0.3-0.8-0.6-1.2-0.9c-0.3-0.3-0.5-0.6-0.5-1.1c0-0.8,0.1-0.9,0.8-0.6c0.1,0,0.2,0.1,0.4,0.1
		c0.6,0.3,1.2,0.5,1.9,0.8c1.2,0.5,2.4,0.7,3.7,0.4c1.4-0.3,2.4-1.2,2.9-2.6c0.1-0.3,0.1-0.6,0-0.9c-0.1-0.1-0.3-0.3-0.4-0.3
		c-0.1,0-0.3,0.1-0.4,0.3C30-47,30-46.8,30-46.7c-0.1,0.5-0.4,1-0.9,1.3c-0.1,0.1-0.2,0.1-0.3,0.1c0.7-0.7,1.1-1.6,1.1-2.6
		c0-0.8-0.6-1.3-1.4-1.2c-0.2,0-0.4,0.1-0.4,0.3c0,0.3,0,0.5,0,0.8c0,0.3,0,0.6,0,1c-0.1,0.5-0.4,0.8-0.9,1c-0.2,0.1-0.5,0-0.7-0.1
		c0.3-0.1,0.6-0.2,0.8-0.5c0.2-0.3,0.3-0.6,0.4-0.9c0.2-0.7,0.1-1.3-0.5-1.7c-0.3-0.2-0.6-0.3-1-0.3c-0.7-0.1-1.4,0.1-2.1,0.3
		C23.5-49.1,23-49,22.6-49c-0.4,0-0.8-0.1-1.2-0.2c-2.4-0.4-4.8-0.3-7.3-0.2c-2.7,0-5.3,0-8,0c-4.8,0-9.5,0-14.3,0c-2,0-3.9,0-5.9,0
		c-2.7,0-5.4,0.3-8,1c-10,2.6-17.5,8-22.4,17.1c-2.2,4-3.4,8.3-3.9,12.8C-48.4-18-45.5-23.5-45.5-23L-45.5-23z"/>
	<path inkscape:connector-curvature="0" class="st0" d="M32.7,0.6c-0.8,1.8-0.8,2.5,0.1,4.2c0.7,1.3,2.6,0.1,2.3,1.6
		C35,7.7,33.7,9,33.5,9.3C33.2,9.7,33,10,32.6,9.9c-0.4-0.1-0.8-0.3-1.1-0.5c-1.1-0.8-2.2-1.8-3-2.9c-1.5-2.1-0.9-3.3,0.9-5
		C30.1,0.8,32.8,0.4,32.7,0.6z"/>
	<path inkscape:connector-curvature="0" class="st5" d="M31,7.4c0.4,0.5,1.1,1,1.9,1.4c0.4,0.3-0.8-2.9-1.1-3.7
		c-1.1-2.7,0.3-4.4-0.1-4.2C30.9,1.4,29.7,3,29.6,4C29.5,5.1,30.3,6.6,31,7.4z"/>
	<path inkscape:connector-curvature="0" class="st35" d="M32.4,0.8c-0.8,1.8-0.8,2.5,0.1,4.2c0.7,1.3,1,2.6,0.8,4
		c0,0.2-0.1,0.3-0.1,0.5c-0.1,0.4-0.4,0.6-0.8,0.5c-0.4-0.1-0.8-0.2-1.1-0.5c-1.1-0.8-2.2-1.8-3-2.9C26.9,5.1,27,4,27.9,2.8
		c0.3-0.3,0.4-0.3,0.7-0.4c0.4-0.1,0.5,0.5,0.4,0.8c-0.3,0.6-0.5,1.1-0.6,1.5c-0.1,1.1,0.5,2.2,1.2,3c0.7,0.7,2.1,1.9,3,2.2
		c0.2-0.9-0.3-2.6-0.6-3.5c-0.4-1-1.5-2.9-1.2-4.1c0,0,0.4-1.1,0.8-1.4C32.2,0.6,32.4,0.8,32.4,0.8z"/>
	
		<linearGradient id="SVGID_22_" gradientUnits="userSpaceOnUse" x1="44178.5586" y1="-16.256" x2="44178.5586" y2="-16.256" gradientTransform="matrix(-1 0 0 1 44206.4531 50.957)">
		<stop  offset="0" style="stop-color:#E65271"/>
		<stop  offset="0.3836" style="stop-color:#FAA100"/>
	</linearGradient>
	<path inkscape:connector-curvature="0" class="st37" d="M27.9,34.7"/>
	<g class="st2">
		<path inkscape:connector-curvature="0" class="st38" d="M-18.6-19.9c-0.1,0-0.2,0-0.3,0.1C-18.8-19.8-18.7-19.8-18.6-19.9z"/>
	</g>
	<path inkscape:connector-curvature="0" class="st1" d="M33.1-34.8c1,1.5,2.1,2,3.3,3.2c1.2,1.1,2.1,2.5,3.3,3.5
		c0.9-0.2,2,0,2.9-0.1c0.7-1.7,4-0.1,4.3,1l0.4-0.7c0.9-1.9-2.5-2-4.4-1.8c-1.4,0.1-7.2-1.4-7-9c-0.7-1-2.2,0-2.2-1.3
		c0-1.4,0-3.7,1.2-4.6c-0.3-1.2-1.5,0.1-1.8,0.5c-0.7,1.1-1.7,2.9-2,4.2C30.7-37.7,32-36.5,33.1-34.8z"/>
</symbol>
<symbol  id="cvfc" viewBox="-3 -3.5 6 7">
	<path inkscape:connector-curvature="0" class="st10" d="M0-3.5c-0.2,0-0.4,0.1-0.5,0.2l-2,1.2C-2.8-1.9-3-1.6-3-1.2v2.5
		c0,0.3,0.2,0.7,0.5,0.8l2,1.2C-0.4,3.4-0.2,3.5,0,3.5s0.4-0.1,0.5-0.2l2-1.2C2.8,1.9,3,1.6,3,1.2v-2.5c0-0.3-0.2-0.7-0.5-0.8
		l-2-1.2C0.4-3.4,0.2-3.5,0-3.5z"/>
	<polygon class="st39" points="-3,3 3,3 3,-3 -3,-3 	"/>
</symbol>
<sodipodi:namedview  bordercolor="#666666" borderopacity="1" fit-margin-bottom="0" fit-margin-left="0" fit-margin-right="0" fit-margin-top="0" gridtolerance="10" guidetolerance="10" inkscape:current-layer="Layer_2" inkscape:cx="-601.86989" inkscape:cy="413.35527" inkscape:document-rotation="0" inkscape:pageopacity="0" inkscape:pageshadow="2" inkscape:window-height="1014" inkscape:window-maximized="1" inkscape:window-width="1920" inkscape:window-x="0" inkscape:window-y="36" inkscape:zoom="0.26074563" objecttolerance="10" pagecolor="#ffffff" showgrid="false">
	</sodipodi:namedview>
<g>
	<defs>
		<rect id="SVGID_23_" width="800" height="808"/>
	</defs>
	<clipPath id="SVGID_24_">
		<use xlink:href="#SVGID_23_"  style="overflow:visible;"/>
	</clipPath>
	<g style="clip-path:url(#SVGID_24_);">
		
			<use xlink:href="#cvfam"  width="100.9" height="101.9" x="-50.5" y="-51" transform="matrix(7.928 0 0 -7.928 395.0677 404.0663)" style="overflow:visible;"/>
	</g>
</g>
<g transform="translate(3.971e-5 2.032e-6)">
	<path inkscape:connector-curvature="0" d="M885.9,598.8V667H996v38.7H885.9V808H844V559.8h165.5l-0.4,39.1L885.9,598.8z"/>
	<path inkscape:connector-curvature="0" d="M1092,808h-39.8V544.5h39.8V808z"/>
	<path inkscape:connector-curvature="0" d="M1189,808h-39.8V619.1h39.8V808z M1151.7,581.4c-5-5-7.5-10.9-7.5-17.8
		s2.5-12.8,7.5-17.8s10.9-7.5,17.8-7.5c6.9,0,12.8,2.5,17.8,7.5c5,5,7.5,10.9,7.5,17.8s-2.5,12.8-7.5,17.8s-10.9,7.5-17.8,7.5
		C1162.6,588.9,1156.7,586.4,1151.7,581.4z"/>
	<path inkscape:connector-curvature="0" d="M1287,705.7V808h-39.8V619.1h39.8v34.5c6.4-11.6,15.2-20.7,26.3-27.3
		c11.4-6.6,23.6-9.9,36.6-9.9c21.3,0,38.5,6.5,51.5,19.5c13.3,13,19.9,31.8,19.9,56.5v115.8h-39.8V704.4c0-34.8-14.4-52.2-43.3-52.2
		c-13.7,0-25.7,4.6-35.9,13.8C1292.1,675,1287,688.3,1287,705.7L1287,705.7z"/>
	<path inkscape:connector-curvature="0" d="M1516,808h-39.8V544.5h39.8v154.8l76.7-80.3h51.1l-71.7,74.9l77.1,114h-48.3l-56.1-82.8
		l-28.8,29.1L1516,808z"/>
</g>
</svg>
