<?xml version="1.0" encoding="UTF-8"?>
<svg width="269" height="54.4" style="enable-background:new" version="1.0" xmlns="http://www.w3.org/2000/svg" xmlns:cc="http://creativecommons.org/ns#" xmlns:dc="http://purl.org/dc/elements/1.1/" xmlns:rdf="http://www.w3.org/1999/02/22-rdf-syntax-ns#" xmlns:xlink="http://www.w3.org/1999/xlink">
<title>FreeBSD textlogo</title>
 <g transform="translate(-345 -306)">
  <path d="m421 321c-10.4 0.527-18.7 9.15-18.7 19.7 0 10.8 8.81 19.7 19.7 19.7 4.82 0 9.08-1.65 12.5-4.53 0.46-0.46 0.75-1.08 0.75-1.78 0-1.4-1.16-2.56-2.56-2.56-0.702 0-1.32 0.29-1.78 0.75-2.46 1.91-5.55 3.03-8.91 3.03-5.84 1e-5 -10.9-3.45-13.2-8.41-0.157-0.33-0.25-0.704-0.25-1.09 0-1.4 1.13-2.53 2.53-2.53h28c1.4 1e-5 2.53-1.13 2.53-2.53 0-10.8-8.81-19.7-19.7-19.7-0.339 0-0.665-0.017-1 0zm1 5.06c5.87 1e-5 10.9 3.49 13.2 8.5 4e-3 9e-3 -4e-3 0.0225 0 0.0312 0.12 0.296 0.188 0.628 0.188 0.969 2e-5 1.4-1.13 2.53-2.53 2.53h-21.8c-1.4 0-2.53-1.13-2.53-2.53 0-0.39 0.0929-0.763 0.25-1.09 2.32-4.96 7.35-8.41 13.2-8.41z" style="enable-background:accumulate"/>
  <path d="m359 306c-7.82 1e-5 -14.1 6.92-14.1 14.8v37c1e-5 1.4 1.13 2.53 2.53 2.53 1.4 1e-5 2.56-1.13 2.56-2.53v-17.7c0-2.01 1.62-3.62 3.62-3.62h11.6c1.4-1e-5 2.56-1.13 2.56-2.53 1e-5 -1.4-1.16-2.53-2.56-2.53h-11.6c-2.01 0-3.62-1.62-3.62-3.62v-7c0-5.06 4.03-9.72 9-9.72h12.1c1.4-1e-5 2.56-1.13 2.56-2.53 0-1.4-1.16-2.53-2.56-2.53z"/>
  <path d="m388 321c-7.91-1e-5 -14.8 6.26-14.8 14v22.8c1e-5 1.4 1.13 2.56 2.53 2.56 1.4 0 2.56-1.16 2.56-2.56v-22.8c0-5.07 4.51-8.88 9.75-8.88 3.51 1e-5 6.24 1.78 8.25 4.03 0.43 0.418 1.01 0.689 1.66 0.689 1.32 0 2.41-1.08 2.41-2.41 0-0.432-0.113-0.837-0.312-1.18-2.06-3.39-7.4-6.22-12-6.22z"/>
  <path d="m466 321c-10.4 0.527-18.7 9.15-18.7 19.7 0 10.8 8.81 19.7 19.7 19.7 4.82 0 9.08-1.65 12.5-4.53 0.46-0.46 0.75-1.08 0.75-1.78 0-1.4-1.16-2.56-2.56-2.56-0.702 0-1.32 0.29-1.78 0.75-2.46 1.91-5.55 3.03-8.91 3.03-5.84 1e-5 -10.9-3.45-13.2-8.41-0.157-0.33-0.25-0.704-0.25-1.09 0-1.4 1.13-2.53 2.53-2.53h28c1.4 1e-5 2.53-1.13 2.53-2.53 0-10.8-8.81-19.7-19.7-19.7-0.339 0-0.665-0.017-1 0zm1 5.06c5.87 1e-5 10.9 3.49 13.2 8.5 4e-3 9e-3 -4e-3 0.0225 0 0.0312 0.12 0.296 0.188 0.628 0.188 0.969 2e-5 1.4-1.13 2.53-2.53 2.53h-21.8c-1.4 0-2.53-1.13-2.53-2.53 0-0.39 0.0929-0.763 0.25-1.09 2.32-4.96 7.35-8.41 13.2-8.41z" style="enable-background:accumulate"/>
  <path d="m510 306c-7.79-1e-5 -14.2 6.36-14.2 14.2v10.3 27.3c0 1.4 1.16 2.56 2.56 2.56h21.7c8.57 0 15.5-6.96 15.5-15.5 0-6.83-4.43-12.6-10.6-14.7 2.49-2.56 4.03-6.07 4.03-9.91 1e-5 -7.75-6.3-14.1-14-14.2h-0.125-0.0625-4.88zm0 5.09c3.21 1e-5 4.44 0 4.88 0h0.0625c5.04 0 9.09 4.02 9.09 9.06 0 5.04-4.05 9.09-9.09 9.09h-11.5c-1.4 0-2.56-1.13-2.56-2.53v-3-3.56c0-5.04 4.05-9.06 9.09-9.06zm-6.56 23.2h16.7c5.76 0 10.4 4.68 10.4 10.4-1e-5 5.76-4.68 10.4-10.4 10.4h-19.2v-18.3c0-1.4 1.13-2.56 2.53-2.56z" style="enable-background:accumulate"/>
  <path d="m466 321c-10.4 0.527-18.7 9.15-18.7 19.7 0 10.8 8.81 19.7 19.7 19.7 4.82 0 9.08-1.65 12.5-4.53 0.46-0.46 0.75-1.08 0.75-1.78 0-1.4-1.16-2.56-2.56-2.56-0.702 0-1.32 0.29-1.78 0.75-2.46 1.91-5.55 3.03-8.91 3.03-5.84 1e-5 -10.9-3.45-13.2-8.41-0.157-0.33-0.25-0.704-0.25-1.09 0-1.4 1.13-2.53 2.53-2.53h28c1.4 1e-5 2.53-1.13 2.53-2.53 0-10.8-8.81-19.7-19.7-19.7-0.339 0-0.665-0.017-1 0zm1 5.06c5.87 1e-5 10.9 3.49 13.2 8.5 4e-3 9e-3 -4e-3 0.0225 0 0.0312 0.12 0.296 0.188 0.628 0.188 0.969 2e-5 1.4-1.13 2.53-2.53 2.53h-21.8c-1.4 0-2.53-1.13-2.53-2.53 0-0.39 0.0929-0.763 0.25-1.09 2.32-4.96 7.35-8.41 13.2-8.41z" style="enable-background:accumulate"/>
  <path d="m549 306c-1.86 0.122-3.78 0.519-5.72 1.31-5.49 2.25-8.78 6.76-8.91 11.6s2.87 9.62 8.28 12.5l15 8c4.05 2.16 5.34 5.03 5.09 7.75s-2.2 5.59-6.25 7.25c-5.32 2.18-12.2-0.723-15.8-2.78-0.792-0.543-1.82-0.594-2.66-0.131s-1.35 1.36-1.32 2.32c0.0345 0.959 0.606 1.82 1.48 2.22 4.1 2.33 12.3 6.33 20.2 3.06 5.47-2.24 8.97-6.63 9.41-11.5s-2.33-9.82-7.78-12.7l-15-7.97c-4.09-2.18-5.66-5.19-5.59-7.88 0.0683-2.68 1.72-5.38 5.75-7.03 5.55-2.27 11.6-0.0305 15.1 1.97 0.789 0.49 1.78 0.51 2.59 0.0532 0.809-0.457 1.3-1.32 1.29-2.25-0.0126-0.929-0.531-1.78-1.35-2.21-3.15-1.79-8.19-3.96-13.8-3.59z" style="enable-background:accumulate"/>
  <path d="m581 306c-4.48-1e-5 -8.19 3.7-8.19 8.19v43.3c-2e-3 0.747 0.285 1.47 0.812 2 0.528 0.528 1.25 0.815 2 0.812h11.2c15 1e-5 27.1-12.2 27.1-27.2-2e-5 -15-12.2-27.2-27.1-27.2zm0 5.59h5.88c11.9 0 21.5 9.64 21.5 21.6 0 11.9-9.62 21.5-21.5 21.5h-5.91c-1.4 0-2.56-1.13-2.56-2.53 1e-5 -7.43 0-35.4 0-38 0-1.45 1.14-2.59 2.59-2.59z" style="enable-background:accumulate"/>
 </g>
</svg>
